<?xml version="1.0" encoding="UTF-8"?>
<svg width="512px" height="256px" viewBox="0 0 512 256" version="1.1" xmlns="http://www.w3.org/2000/svg" xmlns:xlink="http://www.w3.org/1999/xlink">
    <title>Artboard</title>
    <g id="Artboard" stroke="none" stroke-width="1" fill="none" fill-rule="evenodd">
        <path d="M65.9224045,162.335838 L70.0775955,166.664162 L57.5775955,178.664162 L53.4224045,174.335838 L65.9224045,162.335838 Z M57.9056996,153.852 L62.0943004,158.148 L42.0943004,177.648 L37.9056996,173.352 L57.9056996,153.852 Z M135.686672,76.7378708 L136.370997,76.7414187 L139.364641,76.768294 L139.343995,79.761987 L139.323306,81.6950549 L139.287505,83.555311 L139.247055,84.9942732 L139.195341,86.3920902 L139.131655,87.7511862 C138.688903,96.2412959 137.483259,102.547548 134.705639,109.441173 C129.891828,121.38831 120.858489,131.64677 106.385519,140.314996 C103.423047,142.089295 100.429183,143.667504 96.9570145,145.321917 C95.5845022,152.167655 92.5635299,157.221753 86.8012132,163.23104 L85.9751979,164.080147 L75.3103241,174.893144 L75.7231474,161.080764 L80.3690474,161.219064 L81.7033992,159.866866 C85.7526632,155.761362 88.2561618,152.395359 89.7708268,148.594511 L86.0615155,150.256498 L84.4128902,151.012356 L83.8865866,151.261909 L82.8826548,151.748802 C80.6136782,152.867319 78.8492163,153.869572 77.3750066,154.896201 L77.0805516,155.104347 L73.5822813,150.229709 C75.6522437,148.744206 78.0713297,147.390678 81.2820189,145.856651 L82.3430539,145.357973 L85.9938449,143.707035 L91.5464787,141.222662 L93.1279113,140.493652 C96.988439,138.692875 100.177999,137.03901 103.302613,135.167599 C116.679318,127.155954 124.827562,117.902628 129.140412,107.198798 C131.884189,100.389166 132.93989,94.1035217 133.246566,84.893351 L133.289879,83.3736301 L133.302768,82.7708585 L133.192748,82.7747668 C113.7767,83.3777337 97.3921791,91.4477535 81.717752,111.982363 L81.2177427,112.641961 L80.5617573,113.520687 L79.6239027,114.804912 L79.0293617,115.638266 L78.4593339,116.453206 L77.9137826,117.249582 L77.392671,118.027241 L76.8959623,118.786032 L76.4236197,119.525805 L76.1965741,119.888512 L75.7607115,120.599472 L75.3491229,121.291035 L74.8687165,122.127981 L74.4261087,122.934087 C74.3131135,123.144911 74.2041424,123.352413 74.0991894,123.556568 L73.7963783,124.158971 L73.6124045,124.539921 L74.4731985,128.316966 C73.6706739,128.499785 72.8781016,128.715148 72.0972804,128.962053 C72.0367247,129.378187 72.0165485,129.755299 72.0369469,130.094238 L72.0494205,130.249731 L67.8482288,130.673359 C65.0488772,132.058485 62.4715158,133.879233 60.2173618,136.079234 L59.8129713,136.481503 L58.1192893,138.198225 L62.8324045,138.197921 L63.9692759,137.062247 L65.1044045,138.197921 L65.6849625,138.198687 L73.3078147,145.927412 L69.036016,150.140693 L66.7204045,147.792921 L66.4683657,148.046618 L62.6204045,144.197921 L43.7741383,144.198687 L55.5411727,132.268222 C58.8759204,128.887158 62.8325588,126.215871 67.1713514,124.387874 C67.8805475,122.476452 68.9189798,120.370408 70.2833133,118.056729 L70.7769018,117.233897 L71.2973637,116.393778 L71.8446643,115.536227 L72.128368,115.10087 L72.7158608,114.216903 C72.9161522,113.91929 73.1209021,113.618712 73.3301047,113.315145 L73.9710648,112.395453 L74.638706,111.457683 L75.3329935,110.50169 L76.2382707,109.280857 L76.4243098,109.033222 C94.0922519,85.5651679 113.139367,76.7136411 135.686672,76.7378708 Z M49.9224045,146.335838 L54.0775955,150.664162 L41.5775955,162.664162 L37.4224045,158.335838 L49.9224045,146.335838 Z M117.835541,99.4832348 C120.791394,102.480142 120.848238,107.287011 118.006071,110.353532 L117.835541,110.531881 L113.563742,106.3186 C114.273285,105.599202 114.273285,104.415914 113.563742,103.696516 C112.876894,103.000128 111.780659,103.000128 111.09381,103.696516 C110.419744,104.379944 110.386041,105.482033 110.9927,106.207327 L111.09381,106.3186 L106.822012,110.531881 C103.8082,107.476211 103.8082,102.538905 106.822012,99.4832348 C109.858518,96.4045547 114.799034,96.4045547 117.835541,99.4832348 Z M177.568,115.28 L172.816,115.28 L172.816,110 L177.568,110 L177.568,104.528 L183.808,102.752 L183.808,110 L196.384,110 L196.384,115.28 L183.808,115.28 L183.808,122.144 C183.808,124.608 184.272,126.392 185.2,127.496 C186.128,128.6 187.424,129.152 189.088,129.152 C189.952,129.152 190.736,129.048 191.44,128.84 C192.144,128.632 192.776,128.368 193.336,128.048 C193.896,127.728 194.408,127.376 194.872,126.992 L196.144,125.936 L199.024,130.256 C198.48,130.896 197.8,131.48 196.984,132.008 C196.168,132.536 195.288,133 194.344,133.4 C193.4,133.8 192.416,134.112 191.392,134.336 C190.368,134.56 189.36,134.672 188.368,134.672 C184.784,134.672 182.088,133.672 180.28,131.672 C178.472,129.672 177.568,126.496 177.568,122.144 L177.568,115.28 Z M212.368,134 L212.368,119.312 C212.368,118.352 212.304,117.576 212.176,116.984 C212.048,116.392 211.88,115.928 211.672,115.592 C211.464,115.256 211.208,115.032 210.904,114.92 C210.6,114.808 210.288,114.752 209.968,114.752 C209.424,114.752 208.92,114.928 208.456,115.28 C207.992,115.632 207.68,116.08 207.52,116.624 L207.52,134 L201.76,134 L201.76,110 L206.32,110 L206.992,112.64 L207.136,112.64 C207.616,111.712 208.32,110.952 209.248,110.36 C210.176,109.768 211.264,109.472 212.512,109.472 C213.568,109.472 214.576,109.728 215.536,110.24 C216.496,110.752 217.152,111.648 217.504,112.928 C217.984,111.808 218.72,110.952 219.712,110.36 C220.704,109.768 221.776,109.472 222.928,109.472 C223.792,109.472 224.568,109.592 225.256,109.832 C225.944,110.072 226.544,110.496 227.056,111.104 C227.568,111.712 227.96,112.536 228.232,113.576 C228.504,114.616 228.64,115.952 228.64,117.584 L228.64,134 L222.88,134 L222.88,118.64 C222.88,117.2 222.648,116.192 222.184,115.616 C221.72,115.04 221.152,114.752 220.48,114.752 C219.904,114.752 219.408,114.888 218.992,115.16 C218.576,115.432 218.288,115.872 218.128,116.48 L218.128,134 L212.368,134 Z M229.6,110 L237.76,110 L238.48,112.88 L238.672,112.88 C240.336,110.512 243.024,109.328 246.736,109.328 C248.208,109.328 249.56,109.56 250.792,110.024 C252.024,110.488 253.08,111.216 253.96,112.208 C254.84,113.2 255.52,114.448 256,115.952 C256.48,117.456 256.72,119.264 256.72,121.376 C256.72,123.424 256.448,125.272 255.904,126.92 C255.36,128.568 254.576,129.968 253.552,131.12 C252.528,132.272 251.28,133.152 249.808,133.76 C248.336,134.368 246.656,134.672 244.768,134.672 C243.776,134.672 242.8,134.6 241.84,134.456 C240.88,134.312 240.08,134.08 239.44,133.76 L239.44,143.6 L233.2,143.6 L233.2,115.28 L229.6,115.28 L229.6,110 Z M244.864,114.608 C243.648,114.608 242.536,114.912 241.528,115.52 C240.52,116.128 239.824,117.04 239.44,118.256 L239.44,128.24 C239.888,128.592 240.536,128.872 241.384,129.08 C242.232,129.288 243.088,129.392 243.952,129.392 C244.848,129.392 245.68,129.24 246.448,128.936 C247.216,128.632 247.888,128.144 248.464,127.472 C249.04,126.8 249.488,125.952 249.808,124.928 C250.128,123.904 250.288,122.672 250.288,121.232 C250.288,119.12 249.776,117.488 248.752,116.336 C247.728,115.184 246.432,114.608 244.864,114.608 Z M262.576,100.4 L272.8,100.4 L272.8,122.576 C272.8,125.04 273.104,126.752 273.712,127.712 C274.32,128.672 275.296,129.152 276.64,129.152 C277.632,129.152 278.448,129.048 279.088,128.84 C279.728,128.632 280.368,128.336 281.008,127.952 L283.36,132.272 C282.816,132.624 282.272,132.952 281.728,133.256 C281.184,133.56 280.608,133.816 280,134.024 C279.392,134.232 278.728,134.392 278.008,134.504 C277.288,134.616 276.48,134.672 275.584,134.672 C272.576,134.672 270.32,133.904 268.816,132.368 C267.312,130.832 266.56,128.656 266.56,125.84 L266.56,105.68 L262.576,105.68 L262.576,100.4 Z M289.072,128.72 L295.024,128.72 L295.024,115.28 L289.072,115.28 L289.072,110 L299.872,110 L300.592,113.168 L300.784,113.168 C301.68,112.112 302.704,111.232 303.856,110.528 C305.008,109.824 306.352,109.472 307.888,109.472 C309.808,109.472 311.32,110.176 312.424,111.584 C313.528,112.992 314.08,115.344 314.08,118.64 L308.464,118.64 C308.464,117.488 308.296,116.648 307.96,116.12 C307.624,115.592 307.088,115.328 306.352,115.328 C305.072,115.328 304.04,115.648 303.256,116.288 C302.472,116.928 301.808,117.664 301.264,118.496 L301.264,128.72 L311.68,128.72 L311.68,134 L289.072,134 L289.072,128.72 Z M172.936,163.36 L175.912,163.36 L175.912,156.64 L172.936,156.64 L172.936,154 L178.336,154 L178.696,155.584 L178.792,155.584 C179.24,155.056 179.752,154.616 180.328,154.264 C180.904,153.912 181.576,153.736 182.344,153.736 C183.304,153.736 184.06,154.088 184.612,154.792 C185.164,155.496 185.44,156.672 185.44,158.32 L182.632,158.32 C182.632,157.744 182.548,157.324 182.38,157.06 C182.212,156.796 181.944,156.664 181.576,156.664 C180.936,156.664 180.42,156.824 180.028,157.144 C179.636,157.464 179.304,157.832 179.032,158.248 L179.032,163.36 L184.24,163.36 L184.24,166 L172.936,166 L172.936,163.36 Z M199.216,164.728 C199.008,164.92 198.74,165.108 198.412,165.292 C198.084,165.476 197.7,165.648 197.26,165.808 C196.82,165.968 196.336,166.096 195.808,166.192 C195.28,166.288 194.72,166.336 194.128,166.336 C193.104,166.336 192.188,166.192 191.38,165.904 C190.572,165.616 189.888,165.196 189.328,164.644 C188.768,164.092 188.34,163.428 188.044,162.652 C187.748,161.876 187.6,160.992 187.6,160 C187.6,158.944 187.768,158.02 188.104,157.228 C188.44,156.436 188.9,155.776 189.484,155.248 C190.068,154.72 190.752,154.324 191.536,154.06 C192.32,153.796 193.168,153.664 194.08,153.664 C194.688,153.664 195.316,153.744 195.964,153.904 C196.612,154.064 197.208,154.34 197.752,154.732 C198.296,155.124 198.74,155.648 199.084,156.304 C199.428,156.96 199.6,157.792 199.6,158.8 C199.6,159.488 199.52,160.232 199.36,161.032 L190.72,161.032 C190.736,161.544 190.844,161.976 191.044,162.328 C191.244,162.68 191.508,162.968 191.836,163.192 C192.164,163.416 192.54,163.58 192.964,163.684 C193.388,163.788 193.84,163.84 194.32,163.84 C195.28,163.84 196.068,163.728 196.684,163.504 C197.3,163.28 197.8,163.008 198.184,162.688 L199.216,164.728 Z M194.032,156.16 C193.616,156.16 193.224,156.216 192.856,156.328 C192.488,156.44 192.156,156.604 191.86,156.82 C191.564,157.036 191.32,157.304 191.128,157.624 C190.936,157.944 190.824,158.304 190.792,158.704 L196.696,158.704 C196.696,157.92 196.476,157.3 196.036,156.844 C195.596,156.388 194.928,156.16 194.032,156.16 Z M200.8,154 L204.88,154 L205.24,155.44 L205.336,155.44 C206.168,154.256 207.512,153.664 209.368,153.664 C210.104,153.664 210.78,153.78 211.396,154.012 C212.012,154.244 212.54,154.608 212.98,155.104 C213.42,155.6 213.76,156.224 214,156.976 C214.24,157.728 214.36,158.632 214.36,159.688 C214.36,160.712 214.224,161.636 213.952,162.46 C213.68,163.284 213.288,163.984 212.776,164.56 C212.264,165.136 211.64,165.576 210.904,165.88 C210.168,166.184 209.328,166.336 208.384,166.336 C207.888,166.336 207.4,166.3 206.92,166.228 C206.44,166.156 206.04,166.04 205.72,165.88 L205.72,170.8 L202.6,170.8 L202.6,156.64 L200.8,156.64 L200.8,154 Z M208.432,156.304 C207.824,156.304 207.268,156.456 206.764,156.76 C206.26,157.064 205.912,157.52 205.72,158.128 L205.72,163.12 C205.944,163.296 206.268,163.436 206.692,163.54 C207.116,163.644 207.544,163.696 207.976,163.696 C208.424,163.696 208.84,163.62 209.224,163.468 C209.608,163.316 209.944,163.072 210.232,162.736 C210.52,162.4 210.744,161.976 210.904,161.464 C211.064,160.952 211.144,160.336 211.144,159.616 C211.144,158.56 210.888,157.744 210.376,157.168 C209.864,156.592 209.216,156.304 208.432,156.304 Z M216.04,160 C216.04,158.992 216.192,158.096 216.496,157.312 C216.8,156.528 217.232,155.864 217.792,155.32 C218.352,154.776 219.02,154.364 219.796,154.084 C220.572,153.804 221.44,153.664 222.4,153.664 C223.408,153.664 224.308,153.816 225.1,154.12 C225.892,154.424 226.56,154.852 227.104,155.404 C227.648,155.956 228.06,156.624 228.34,157.408 C228.62,158.192 228.76,159.056 228.76,160 C228.76,161.008 228.608,161.904 228.304,162.688 C228,163.472 227.568,164.136 227.008,164.68 C226.448,165.224 225.78,165.636 225.004,165.916 C224.228,166.196 223.36,166.336 222.4,166.336 C221.392,166.336 220.492,166.184 219.7,165.88 C218.908,165.576 218.24,165.148 217.696,164.596 C217.152,164.044 216.74,163.376 216.46,162.592 C216.18,161.808 216.04,160.944 216.04,160 Z M219.256,160 C219.256,160.528 219.328,161.016 219.472,161.464 C219.616,161.912 219.824,162.304 220.096,162.64 C220.368,162.976 220.696,163.236 221.08,163.42 C221.464,163.604 221.904,163.696 222.4,163.696 C223.328,163.696 224.084,163.4 224.668,162.808 C225.252,162.216 225.544,161.28 225.544,160 C225.544,158.896 225.272,158.004 224.728,157.324 C224.184,156.644 223.408,156.304 222.4,156.304 C221.952,156.304 221.536,156.372 221.152,156.508 C220.768,156.644 220.436,156.864 220.156,157.168 C219.876,157.472 219.656,157.856 219.496,158.32 C219.336,158.784 219.256,159.344 219.256,160 Z M246.784,156.64 L244.408,156.64 L244.408,154 L246.784,154 L246.784,151.264 L249.904,150.376 L249.904,154 L256.192,154 L256.192,156.64 L249.904,156.64 L249.904,160.072 C249.904,161.304 250.136,162.196 250.6,162.748 C251.064,163.3 251.712,163.576 252.544,163.576 C252.976,163.576 253.368,163.524 253.72,163.42 C254.072,163.316 254.388,163.184 254.668,163.024 C254.948,162.864 255.204,162.688 255.436,162.496 L256.072,161.968 L257.512,164.128 C257.24,164.448 256.9,164.74 256.492,165.004 C256.084,165.268 255.644,165.5 255.172,165.7 C254.7,165.9 254.208,166.056 253.696,166.168 C253.184,166.28 252.68,166.336 252.184,166.336 C250.392,166.336 249.044,165.836 248.14,164.836 C247.236,163.836 246.784,162.248 246.784,160.072 L246.784,156.64 Z M271.216,164.728 C271.008,164.92 270.74,165.108 270.412,165.292 C270.084,165.476 269.7,165.648 269.26,165.808 C268.82,165.968 268.336,166.096 267.808,166.192 C267.28,166.288 266.72,166.336 266.128,166.336 C265.104,166.336 264.188,166.192 263.38,165.904 C262.572,165.616 261.888,165.196 261.328,164.644 C260.768,164.092 260.34,163.428 260.044,162.652 C259.748,161.876 259.6,160.992 259.6,160 C259.6,158.944 259.768,158.02 260.104,157.228 C260.44,156.436 260.9,155.776 261.484,155.248 C262.068,154.72 262.752,154.324 263.536,154.06 C264.32,153.796 265.168,153.664 266.08,153.664 C266.688,153.664 267.316,153.744 267.964,153.904 C268.612,154.064 269.208,154.34 269.752,154.732 C270.296,155.124 270.74,155.648 271.084,156.304 C271.428,156.96 271.6,157.792 271.6,158.8 C271.6,159.488 271.52,160.232 271.36,161.032 L262.72,161.032 C262.736,161.544 262.844,161.976 263.044,162.328 C263.244,162.68 263.508,162.968 263.836,163.192 C264.164,163.416 264.54,163.58 264.964,163.684 C265.388,163.788 265.84,163.84 266.32,163.84 C267.28,163.84 268.068,163.728 268.684,163.504 C269.3,163.28 269.8,163.008 270.184,162.688 L271.216,164.728 Z M266.032,156.16 C265.616,156.16 265.224,156.216 264.856,156.328 C264.488,156.44 264.156,156.604 263.86,156.82 C263.564,157.036 263.32,157.304 263.128,157.624 C262.936,157.944 262.824,158.304 262.792,158.704 L268.696,158.704 C268.696,157.92 268.476,157.3 268.036,156.844 C267.596,156.388 266.928,156.16 266.032,156.16 Z M278.584,166 L278.584,158.656 C278.584,158.176 278.552,157.788 278.488,157.492 C278.424,157.196 278.34,156.964 278.236,156.796 C278.132,156.628 278.004,156.516 277.852,156.46 C277.7,156.404 277.544,156.376 277.384,156.376 C277.112,156.376 276.86,156.464 276.628,156.64 C276.396,156.816 276.24,157.04 276.16,157.312 L276.16,166 L273.28,166 L273.28,154 L275.56,154 L275.896,155.32 L275.968,155.32 C276.208,154.856 276.56,154.476 277.024,154.18 C277.488,153.884 278.032,153.736 278.656,153.736 C279.184,153.736 279.688,153.864 280.168,154.12 C280.648,154.376 280.976,154.824 281.152,155.464 C281.392,154.904 281.76,154.476 282.256,154.18 C282.752,153.884 283.288,153.736 283.864,153.736 C284.296,153.736 284.684,153.796 285.028,153.916 C285.372,154.036 285.672,154.248 285.928,154.552 C286.184,154.856 286.38,155.268 286.516,155.788 C286.652,156.308 286.72,156.976 286.72,157.792 L286.72,166 L283.84,166 L283.84,158.32 C283.84,157.6 283.724,157.096 283.492,156.808 C283.26,156.52 282.976,156.376 282.64,156.376 C282.352,156.376 282.104,156.444 281.896,156.58 C281.688,156.716 281.544,156.936 281.464,157.24 L281.464,166 L278.584,166 Z M287.2,154 L291.28,154 L291.64,155.44 L291.736,155.44 C292.568,154.256 293.912,153.664 295.768,153.664 C296.504,153.664 297.18,153.78 297.796,154.012 C298.412,154.244 298.94,154.608 299.38,155.104 C299.82,155.6 300.16,156.224 300.4,156.976 C300.64,157.728 300.76,158.632 300.76,159.688 C300.76,160.712 300.624,161.636 300.352,162.46 C300.08,163.284 299.688,163.984 299.176,164.56 C298.664,165.136 298.04,165.576 297.304,165.88 C296.568,166.184 295.728,166.336 294.784,166.336 C294.288,166.336 293.8,166.3 293.32,166.228 C292.84,166.156 292.44,166.04 292.12,165.88 L292.12,170.8 L289,170.8 L289,156.64 L287.2,156.64 L287.2,154 Z M294.832,156.304 C294.224,156.304 293.668,156.456 293.164,156.76 C292.66,157.064 292.312,157.52 292.12,158.128 L292.12,163.12 C292.344,163.296 292.668,163.436 293.092,163.54 C293.516,163.644 293.944,163.696 294.376,163.696 C294.824,163.696 295.24,163.62 295.624,163.468 C296.008,163.316 296.344,163.072 296.632,162.736 C296.92,162.4 297.144,161.976 297.304,161.464 C297.464,160.952 297.544,160.336 297.544,159.616 C297.544,158.56 297.288,157.744 296.776,157.168 C296.264,156.592 295.616,156.304 294.832,156.304 Z M303.688,149.2 L308.8,149.2 L308.8,160.288 C308.8,161.52 308.952,162.376 309.256,162.856 C309.56,163.336 310.048,163.576 310.72,163.576 C311.216,163.576 311.624,163.524 311.944,163.42 C312.264,163.316 312.584,163.168 312.904,162.976 L314.08,165.136 C313.808,165.312 313.536,165.476 313.264,165.628 C312.992,165.78 312.704,165.908 312.4,166.012 C312.096,166.116 311.764,166.196 311.404,166.252 C311.044,166.308 310.64,166.336 310.192,166.336 C308.688,166.336 307.56,165.952 306.808,165.184 C306.056,164.416 305.68,163.328 305.68,161.92 L305.68,151.84 L303.688,151.84 L303.688,149.2 Z M318.16,154.816 C318.8,154.528 319.54,154.28 320.38,154.072 C321.22,153.864 322.216,153.76 323.368,153.76 C324.2,153.76 324.908,153.86 325.492,154.06 C326.076,154.26 326.548,154.544 326.908,154.912 C327.268,155.28 327.528,155.72 327.688,156.232 C327.848,156.744 327.928,157.32 327.928,157.96 C327.928,158.659429 327.907429,159.270694 327.866286,159.793796 L327.844,160.048 C327.788,160.624 327.76,161.136 327.76,161.584 C327.76,161.92 327.776,162.296 327.808,162.712 C327.84,162.936 327.864,163.152 327.88,163.36 L329.44,163.36 L329.44,166 L325.456,166 L325.144,164.368 L325.024,164.368 C324.704,164.864 324.248,165.292 323.656,165.652 C323.064,166.012 322.264,166.192 321.256,166.192 C320.056,166.192 319.104,165.872 318.4,165.232 C317.696,164.592 317.344,163.744 317.344,162.688 C317.344,162.016 317.468,161.436 317.716,160.948 C317.964,160.46 318.324,160.06 318.796,159.748 C319.268,159.436 319.836,159.204 320.5,159.052 C321.164,158.9 321.904,158.824 322.72,158.824 C322.912,158.824 323.111111,158.831111 323.317333,158.845333 L324.28576,158.9296 L324.808,158.968 C324.84,158.808 324.856,158.648 324.856,158.488 L324.856,158.032 C324.856,157.424 324.68,156.988 324.328,156.724 C323.976,156.46 323.456,156.328 322.768,156.328 C321.952,156.328 321.216,156.432 320.56,156.64 C319.904,156.848 319.352,157.056 318.904,157.264 L318.16,154.816 Z M322.264,163.624 C323.032,163.624 323.608,163.484 323.992,163.204 C324.376,162.924 324.656,162.624 324.832,162.304 L324.832,160.864 L324.6016,160.82368 L324.2056,160.76788 L324.2056,160.76788 L324.112,160.756 C323.792,160.716 323.448,160.696 323.08,160.696 C322.776,160.696 322.472,160.724 322.168,160.78 C321.864,160.836 321.592,160.924 321.352,161.044 C321.112,161.164 320.92,161.32 320.776,161.512 C320.632,161.704 320.56,161.936 320.56,162.208 C320.56,162.656 320.692,163.004 320.956,163.252 C321.22,163.5 321.656,163.624 322.264,163.624 Z M333.184,156.64 L330.808,156.64 L330.808,154 L333.184,154 L333.184,151.264 L336.304,150.376 L336.304,154 L342.592,154 L342.592,156.64 L336.304,156.64 L336.304,160.072 C336.304,161.304 336.536,162.196 337,162.748 C337.464,163.3 338.112,163.576 338.944,163.576 C339.376,163.576 339.768,163.524 340.12,163.42 C340.472,163.316 340.788,163.184 341.068,163.024 C341.348,162.864 341.604,162.688 341.836,162.496 L342.472,161.968 L343.912,164.128 C343.64,164.448 343.3,164.74 342.892,165.004 C342.484,165.268 342.044,165.5 341.572,165.7 C341.1,165.9 340.608,166.056 340.096,166.168 C339.584,166.28 339.08,166.336 338.584,166.336 C336.792,166.336 335.444,165.836 334.54,164.836 C333.636,163.836 333.184,162.248 333.184,160.072 L333.184,156.64 Z M346.216,163.36 L350.44,163.36 L350.44,156.64 L346.216,156.64 L346.216,154 L353.56,154 L353.56,163.36 L358,163.36 L358,166 L346.216,166 L346.216,163.36 Z M349.864,150.736 C349.864,150.24 350.048,149.816 350.416,149.464 C350.784,149.112 351.296,148.936 351.952,148.936 C352.624,148.936 353.16,149.112 353.56,149.464 C353.96,149.816 354.16,150.24 354.16,150.736 C354.16,151.248 353.96,151.668 353.56,151.996 C353.16,152.324 352.624,152.488 351.952,152.488 C351.296,152.488 350.784,152.324 350.416,151.996 C350.048,151.668 349.864,151.248 349.864,150.736 Z M359.488,154 L363.688,154 L364.048,155.584 L364.144,155.584 C364.512,155.072 365.04,154.624 365.728,154.24 C366.416,153.856 367.24,153.664 368.2,153.664 C368.792,153.664 369.348,153.744 369.868,153.904 C370.388,154.064 370.832,154.328 371.2,154.696 C371.568,155.064 371.86,155.564 372.076,156.196 C372.292,156.828 372.4,157.608 372.4,158.536 L372.4,166 L369.28,166 L369.28,159.184 C369.28,158.208 369.06,157.504 368.62,157.072 C368.18,156.64 367.624,156.424 366.952,156.424 C366.36,156.424 365.82,156.596 365.332,156.94 C364.844,157.284 364.512,157.712 364.336,158.224 L364.336,166 L361.216,166 L361.216,156.64 L359.488,156.64 L359.488,154 Z M386.32,166 C386.32,166.864 386.172,167.616 385.876,168.256 C385.58,168.896 385.172,169.428 384.652,169.852 C384.132,170.276 383.516,170.588 382.804,170.788 C382.092,170.988 381.312,171.088 380.464,171.088 C379.888,171.088 379.348,171.044 378.844,170.956 C378.34,170.868 377.876,170.752 377.452,170.608 C377.028,170.464 376.656,170.308 376.336,170.14 C376.016,169.972 375.76,169.808 375.568,169.648 L376.768,167.44 C377.152,167.696 377.612,167.94 378.148,168.172 C378.684,168.404 379.36,168.52 380.176,168.52 C381.184,168.52 381.952,168.288 382.48,167.824 C383.008,167.36 383.272,166.696 383.272,165.832 L383.272,165.064 L383.176,165.064 C382.888,165.448 382.464,165.732 381.904,165.916 C381.344,166.1 380.696,166.192 379.96,166.192 C379.192,166.192 378.484,166.072 377.836,165.832 C377.188,165.592 376.624,165.228 376.144,164.74 C375.664,164.252 375.292,163.632 375.028,162.88 C374.764,162.128 374.632,161.248 374.632,160.24 C374.632,159.184 374.788,158.248 375.1,157.432 C375.412,156.616 375.852,155.932 376.42,155.38 C376.988,154.828 377.668,154.412 378.46,154.132 C379.252,153.852 380.136,153.712 381.112,153.712 C381.624,153.712 382.136,153.732 382.648,153.772 C383.16,153.812 383.644,153.864 384.1,153.928 C384.556,153.992 384.976,154.068 385.36,154.156 C385.744,154.244 386.064,154.336 386.32,154.432 L386.32,166 Z M380.56,163.696 C381.168,163.696 381.716,163.56 382.204,163.288 C382.692,163.016 383.024,162.608 383.2,162.064 L383.2,156.664 C382.976,156.568 382.66,156.492 382.252,156.436 C381.844,156.38 381.456,156.352 381.088,156.352 C380.64,156.352 380.22,156.424 379.828,156.568 C379.436,156.712 379.092,156.94 378.796,157.252 C378.5,157.564 378.268,157.956 378.1,158.428 C377.932,158.9 377.848,159.464 377.848,160.12 C377.848,160.696 377.92,161.208 378.064,161.656 C378.208,162.104 378.408,162.48 378.664,162.784 C378.92,163.088 379.208,163.316 379.528,163.468 C379.848,163.62 380.192,163.696 380.56,163.696 Z" id="Shape" fill="#F0E5CF" fill-rule="nonzero"></path>
    </g>
</svg>