<?xml version="1.0" encoding="UTF-8"?>
<svg width="348.897595px" height="101.92639px" viewBox="0 0 348.897595 101.92639" version="1.1" xmlns="http://www.w3.org/2000/svg" xmlns:xlink="http://www.w3.org/1999/xlink">
    <title>logo-light</title>
    <g id="Page-1" stroke="none" stroke-width="1" fill="none" fill-rule="evenodd">
        <g id="logo-light" fill="#4B6587" fill-rule="nonzero">
            <path d="M28.5,85.5980662 L32.655191,89.9263902 L20.155191,101.92639 L16,97.5980662 L28.5,85.5980662 Z M20.4832951,77.1142282 L24.6718959,81.4102282 L4.6718959,100.910228 L0.4832951,96.6142282 L20.4832951,77.1142282 Z M98.2642675,4.93909357e-05 L98.9485925,0.00364688437 L101.942237,0.0305221844 L101.921591,3.02421518 L101.900902,4.95728308 L101.865101,6.81753918 L101.82465,8.25650138 L101.772937,9.65431838 L101.70925,11.0134144 C101.266499,19.5035241 100.060855,25.8097762 97.2832345,32.7034012 C92.4694235,44.6505382 83.4360845,54.9089982 68.9631145,63.5772242 C66.0006425,65.3515232 63.0067785,66.9297322 59.53461,68.5841452 C58.1620977,75.4298832 55.1411254,80.4839812 49.3788087,86.4932682 L48.5527934,87.3423752 L37.8879196,98.1553722 L38.3007429,84.3429922 L42.9466429,84.4812922 L44.2809947,83.1290942 C48.3302587,79.0235902 50.8337573,75.6575872 52.3484223,71.8567392 L48.639111,73.5187262 L46.9904857,74.2745842 L46.4641821,74.5241372 L45.4602503,75.0110302 C43.1912737,76.1295472 41.4268118,77.1318002 39.9526021,78.1584292 L39.6581471,78.3665752 L36.1598768,73.4919372 C38.2298392,72.0064342 40.6489252,70.6529062 43.8596144,69.1188792 L44.9206494,68.6202012 L48.5714404,66.9692632 L54.1240742,64.4848902 L55.7055068,63.7558802 C59.5660345,61.9551032 62.7555945,60.3012382 65.8802085,58.4298272 C79.2569135,50.4181822 87.4051575,41.1648562 91.7180075,30.4610262 C94.4617845,23.6513942 95.5174855,17.3657499 95.8241615,8.15557918 L95.8674745,6.63585828 L95.8803635,6.03308668 L95.7703435,6.03699498 C76.3542955,6.63996188 59.9697746,14.7099817 44.2953475,35.2445912 L43.7953382,35.9041892 L43.1393528,36.7829152 L42.2014982,38.0671402 L41.6069572,38.9004942 L41.0369294,39.7154342 L40.4913781,40.5118102 L39.9702665,41.2894692 L39.4735578,42.0482602 L39.0012152,42.7880332 L38.7741696,43.1507402 L38.338307,43.8617002 L37.9267184,44.5532632 L37.446312,45.3902092 L37.0037042,46.1963152 C36.890709,46.4071392 36.7817379,46.6146412 36.6767849,46.8187962 L36.3739738,47.4211992 L36.19,47.8021492 L37.050794,51.5791942 C36.2482694,51.7620132 35.4556971,51.9773762 34.6748759,52.2242812 C34.6143202,52.6404152 34.594144,53.0175272 34.6145424,53.3564662 L34.627016,53.5119592 L30.4258243,53.9355872 C27.6264727,55.3207132 25.0491113,57.1414612 22.7949573,59.3414622 L22.3905668,59.7437312 L20.6968848,61.4604532 L25.41,61.4601492 L26.5468714,60.3244752 L27.682,61.4601492 L28.262558,61.4609152 L35.8854102,69.1896402 L31.6136115,73.4029212 L29.298,71.0551492 L29.0459612,71.3088462 L25.198,67.4601492 L6.3517338,67.4609152 L18.1187682,55.5304502 C21.4535159,52.1493862 25.4101543,49.4780992 29.7489469,47.6501022 C30.458143,45.7386802 31.4965753,43.6326362 32.8609088,41.3189572 L33.3544973,40.4961252 L33.8749592,39.6560062 L34.4222598,38.7984552 L34.7059635,38.3630982 L35.2934563,37.4791312 C35.4937477,37.1815182 35.6984976,36.8809402 35.9077002,36.5773732 L36.5486603,35.6576812 L37.2163015,34.7199112 L37.910589,33.7639182 L38.8158662,32.5430852 L39.0019053,32.2954502 C56.6698474,8.82739608 75.7169625,-0.0241307156 98.2642675,4.93909357e-05 Z M12.5,69.5980662 L16.655191,73.9263902 L4.155191,85.9263902 L0,81.5980662 L12.5,69.5980662 Z M80.4131365,22.745463 C83.3689895,25.7423702 83.4258335,30.5492392 80.5836665,33.6157602 L80.4131365,33.7941092 L76.1413375,29.5808282 C76.8508805,28.8614302 76.8508805,27.6781422 76.1413375,26.9587442 C75.4544895,26.2623562 74.3582545,26.2623562 73.6714055,26.9587442 C72.9973395,27.6421722 72.9636365,28.7442612 73.5702955,29.4695552 L73.6714055,29.5808282 L69.3996075,33.7941092 C66.3857955,30.7384392 66.3857955,25.8011332 69.3996075,22.745463 C72.4361135,19.6667829 77.3766295,19.6667829 80.4131365,22.745463 Z M140.145596,38.5422282 L135.393596,38.5422282 L135.393596,33.2622282 L140.145596,33.2622282 L140.145596,27.7902282 L146.385595,26.0142282 L146.385595,33.2622282 L158.961595,33.2622282 L158.961595,38.5422282 L146.385595,38.5422282 L146.385595,45.4062282 C146.385595,47.8702282 146.849595,49.6542282 147.777595,50.7582282 C148.705595,51.8622282 150.001596,52.4142282 151.665595,52.4142282 C152.529595,52.4142282 153.313595,52.3102282 154.017595,52.1022282 C154.721596,51.8942282 155.353596,51.6302282 155.913596,51.3102282 C156.473595,50.9902282 156.985595,50.6382282 157.449596,50.2542282 L158.721596,49.1982282 L161.601596,53.5182282 C161.057595,54.1582282 160.377596,54.7422282 159.561596,55.2702282 C158.745596,55.7982282 157.865596,56.2622282 156.921595,56.6622282 C155.977596,57.0622282 154.993595,57.3742282 153.969595,57.5982282 C152.945595,57.8222282 151.937596,57.9342282 150.945595,57.9342282 C147.361595,57.9342282 144.665595,56.9342282 142.857596,54.9342282 C141.049596,52.9342282 140.145596,49.7582282 140.145596,45.4062282 L140.145596,38.5422282 Z M174.945595,57.2622282 L174.945595,42.5742282 C174.945595,41.6142282 174.881596,40.8382282 174.753595,40.2462282 C174.625596,39.6542282 174.457595,39.1902282 174.249595,38.8542282 C174.041595,38.5182282 173.785595,38.2942282 173.481595,38.1822282 C173.177595,38.0702282 172.865596,38.0142282 172.545595,38.0142282 C172.001596,38.0142282 171.497595,38.1902282 171.033595,38.5422282 C170.569595,38.8942282 170.257596,39.3422282 170.097596,39.8862282 L170.097596,57.2622282 L164.337595,57.2622282 L164.337595,33.2622282 L168.897595,33.2622282 L169.569595,35.9022282 L169.713595,35.9022282 C170.193596,34.9742282 170.897595,34.2142282 171.825595,33.6222282 C172.753595,33.0302282 173.841596,32.7342282 175.089596,32.7342282 C176.145596,32.7342282 177.153595,32.9902282 178.113596,33.5022282 C179.073596,34.0142282 179.729595,34.9102282 180.081595,36.1902282 C180.561596,35.0702282 181.297595,34.2142282 182.289595,33.6222282 C183.281596,33.0302282 184.353596,32.7342282 185.505595,32.7342282 C186.369596,32.7342282 187.145596,32.8542282 187.833596,33.0942282 C188.521595,33.3342282 189.121596,33.7582282 189.633596,34.3662282 C190.145596,34.9742282 190.537596,35.7982282 190.809596,36.8382282 C191.081595,37.8782282 191.217595,39.2142282 191.217595,40.8462282 L191.217595,57.2622282 L185.457595,57.2622282 L185.457595,41.9022282 C185.457595,40.4622282 185.225595,39.4542282 184.761595,38.8782282 C184.297595,38.3022282 183.729595,38.0142282 183.057595,38.0142282 C182.481595,38.0142282 181.985595,38.1502282 181.569595,38.4222282 C181.153595,38.6942282 180.865596,39.1342282 180.705595,39.7422282 L180.705595,57.2622282 L174.945595,57.2622282 Z M192.177595,33.2622282 L200.337595,33.2622282 L201.057595,36.1422282 L201.249595,36.1422282 C202.913596,33.7742282 205.601596,32.5902282 209.313595,32.5902282 C210.785595,32.5902282 212.137596,32.8222282 213.369596,33.2862282 C214.601596,33.7502282 215.657596,34.4782282 216.537596,35.4702282 C217.417596,36.4622282 218.097596,37.7102282 218.577596,39.2142282 C219.057596,40.7182282 219.297596,42.5262282 219.297596,44.6382282 C219.297596,46.6862282 219.025595,48.5342282 218.481595,50.1822282 C217.937596,51.8302282 217.153595,53.2302282 216.129595,54.3822282 C215.105595,55.5342282 213.857596,56.4142282 212.385595,57.0222282 C210.913596,57.6302282 209.233596,57.9342282 207.345596,57.9342282 C206.353596,57.9342282 205.377596,57.8622282 204.417596,57.7182282 C203.457595,57.5742282 202.657596,57.3422282 202.017595,57.0222282 L202.017595,66.8622282 L195.777595,66.8622282 L195.777595,38.5422282 L192.177595,38.5422282 L192.177595,33.2622282 Z M207.441596,37.8702282 C206.225595,37.8702282 205.113596,38.1742282 204.105595,38.7822282 C203.097596,39.3902282 202.401596,40.3022282 202.017595,41.5182282 L202.017595,51.5022282 C202.465596,51.8542282 203.113596,52.1342282 203.961595,52.3422282 C204.809596,52.5502282 205.665595,52.6542282 206.529595,52.6542282 C207.425596,52.6542282 208.257596,52.5022282 209.025596,52.1982282 C209.793596,51.8942282 210.465596,51.4062282 211.041595,50.7342282 C211.617595,50.0622282 212.065596,49.2142282 212.385595,48.1902282 C212.705595,47.1662282 212.865596,45.9342282 212.865596,44.4942282 C212.865596,42.3822282 212.353596,40.7502282 211.329596,39.5982282 C210.305596,38.4462282 209.009595,37.8702282 207.441596,37.8702282 Z M225.153596,23.6622282 L235.377596,23.6622282 L235.377596,45.8382282 C235.377596,48.3022282 235.681595,50.0142282 236.289595,50.9742282 C236.897595,51.9342282 237.873595,52.4142282 239.217595,52.4142282 C240.209596,52.4142282 241.025595,52.3102282 241.665596,52.1022282 C242.305596,51.8942282 242.945595,51.5982282 243.585595,51.2142282 L245.937596,55.5342282 C245.393595,55.8862282 244.849595,56.2142282 244.305596,56.5182282 C243.761596,56.8222282 243.185596,57.0782282 242.577596,57.2862282 C241.969595,57.4942282 241.305596,57.6542282 240.585595,57.7662282 C239.865596,57.8782282 239.057596,57.9342282 238.161596,57.9342282 C235.153596,57.9342282 232.897595,57.1662282 231.393595,55.6302282 C229.889596,54.0942282 229.137596,51.9182282 229.137596,49.1022282 L229.137596,28.9422282 L225.153596,28.9422282 L225.153596,23.6622282 Z M251.649596,51.9822282 L257.601596,51.9822282 L257.601596,38.5422282 L251.649596,38.5422282 L251.649596,33.2622282 L262.449595,33.2622282 L263.169596,36.4302282 L263.361596,36.4302282 C264.257595,35.3742282 265.281596,34.4942282 266.433596,33.7902282 C267.585596,33.0862282 268.929596,32.7342282 270.465595,32.7342282 C272.385596,32.7342282 273.897595,33.4382282 275.001596,34.8462282 C276.105596,36.2542282 276.657595,38.6062282 276.657595,41.9022282 L271.041595,41.9022282 C271.041595,40.7502282 270.873595,39.9102282 270.537595,39.3822282 C270.201596,38.8542282 269.665595,38.5902282 268.929596,38.5902282 C267.649596,38.5902282 266.617596,38.9102282 265.833596,39.5502282 C265.049596,40.1902282 264.385596,40.9262282 263.841596,41.7582282 L263.841596,51.9822282 L274.257595,51.9822282 L274.257595,57.2622282 L251.649596,57.2622282 L251.649596,51.9822282 Z M135.513596,86.6222282 L138.489596,86.6222282 L138.489596,79.9022282 L135.513596,79.9022282 L135.513596,77.2622282 L140.913596,77.2622282 L141.273595,78.8462282 L141.369596,78.8462282 C141.817596,78.3182282 142.329596,77.8782282 142.905596,77.5262282 C143.481595,77.1742282 144.153595,76.9982282 144.921595,76.9982282 C145.881596,76.9982282 146.637596,77.3502282 147.189595,78.0542282 C147.741595,78.7582282 148.017595,79.9342282 148.017595,81.5822282 L145.209596,81.5822282 C145.209596,81.0062282 145.125596,80.5862282 144.957595,80.3222282 C144.789595,80.0582282 144.521595,79.9262282 144.153595,79.9262282 C143.513596,79.9262282 142.997595,80.0862282 142.605595,80.4062282 C142.213595,80.7262282 141.881596,81.0942282 141.609596,81.5102282 L141.609596,86.6222282 L146.817596,86.6222282 L146.817596,89.2622282 L135.513596,89.2622282 L135.513596,86.6222282 Z M161.793596,87.9902282 C161.585596,88.1822282 161.317596,88.3702282 160.989596,88.5542282 C160.661596,88.7382282 160.277595,88.9102282 159.837595,89.0702282 C159.397595,89.2302282 158.913596,89.3582282 158.385595,89.4542282 C157.857596,89.5502282 157.297595,89.5982282 156.705595,89.5982282 C155.681596,89.5982282 154.765595,89.4542282 153.957595,89.1662282 C153.149596,88.8782282 152.465596,88.4582282 151.905596,87.9062282 C151.345596,87.3542282 150.917596,86.6902282 150.621596,85.9142282 C150.325595,85.1382282 150.177595,84.2542282 150.177595,83.2622282 C150.177595,82.2062282 150.345596,81.2822282 150.681596,80.4902282 C151.017595,79.6982282 151.477596,79.0382282 152.061596,78.5102282 C152.645596,77.9822282 153.329596,77.5862282 154.113596,77.3222282 C154.897595,77.0582282 155.745596,76.9262282 156.657596,76.9262282 C157.265595,76.9262282 157.893596,77.0062282 158.541595,77.1662282 C159.189595,77.3262282 159.785595,77.6022282 160.329596,77.9942282 C160.873595,78.3862282 161.317596,78.9102282 161.661596,79.5662282 C162.005595,80.2222282 162.177595,81.0542282 162.177595,82.0622282 C162.177595,82.7502282 162.097596,83.4942282 161.937596,84.2942282 L153.297595,84.2942282 C153.313595,84.8062282 153.421595,85.2382282 153.621596,85.5902282 C153.821596,85.9422282 154.085596,86.2302282 154.413596,86.4542282 C154.741595,86.6782282 155.117595,86.8422282 155.541595,86.9462282 C155.965596,87.0502282 156.417596,87.1022282 156.897595,87.1022282 C157.857596,87.1022282 158.645596,86.9902282 159.261595,86.7662282 C159.877596,86.5422282 160.377596,86.2702282 160.761595,85.9502282 L161.793596,87.9902282 Z M156.609596,79.4222282 C156.193596,79.4222282 155.801595,79.4782282 155.433595,79.5902282 C155.065596,79.7022282 154.733596,79.8662282 154.437596,80.0822282 C154.141595,80.2982282 153.897595,80.5662282 153.705595,80.8862282 C153.513596,81.2062282 153.401596,81.5662282 153.369596,81.9662282 L159.273595,81.9662282 C159.273595,81.1822282 159.053596,80.5622282 158.613596,80.1062282 C158.173596,79.6502282 157.505595,79.4222282 156.609596,79.4222282 Z M163.377596,77.2622282 L167.457595,77.2622282 L167.817596,78.7022282 L167.913596,78.7022282 C168.745596,77.5182282 170.089596,76.9262282 171.945595,76.9262282 C172.681596,76.9262282 173.357596,77.0422282 173.973595,77.2742282 C174.589596,77.5062282 175.117595,77.8702282 175.557595,78.3662282 C175.997595,78.8622282 176.337595,79.4862282 176.577596,80.2382282 C176.817596,80.9902282 176.937596,81.8942282 176.937596,82.9502282 C176.937596,83.9742282 176.801595,84.8982282 176.529595,85.7222282 C176.257596,86.5462282 175.865596,87.2462282 175.353596,87.8222282 C174.841596,88.3982282 174.217595,88.8382282 173.481595,89.1422282 C172.745596,89.4462282 171.905596,89.5982282 170.961595,89.5982282 C170.465596,89.5982282 169.977596,89.5622282 169.497595,89.4902282 C169.017595,89.4182282 168.617595,89.3022282 168.297595,89.1422282 L168.297595,94.0622282 L165.177595,94.0622282 L165.177595,79.9022282 L163.377596,79.9022282 L163.377596,77.2622282 Z M171.009595,79.5662282 C170.401596,79.5662282 169.845596,79.7182282 169.341596,80.0222282 C168.837595,80.3262282 168.489596,80.7822282 168.297595,81.3902282 L168.297595,86.3822282 C168.521595,86.5582282 168.845596,86.6982282 169.269596,86.8022282 C169.693596,86.9062282 170.121596,86.9582282 170.553596,86.9582282 C171.001596,86.9582282 171.417596,86.8822282 171.801595,86.7302282 C172.185596,86.5782282 172.521595,86.3342282 172.809596,85.9982282 C173.097596,85.6622282 173.321596,85.2382282 173.481595,84.7262282 C173.641595,84.2142282 173.721596,83.5982282 173.721596,82.8782282 C173.721596,81.8222282 173.465596,81.0062282 172.953596,80.4302282 C172.441596,79.8542282 171.793596,79.5662282 171.009595,79.5662282 Z M178.617595,83.2622282 C178.617595,82.2542282 178.769596,81.3582282 179.073596,80.5742282 C179.377596,79.7902282 179.809596,79.1262282 180.369596,78.5822282 C180.929596,78.0382282 181.597596,77.6262282 182.373595,77.3462282 C183.149596,77.0662282 184.017595,76.9262282 184.977596,76.9262282 C185.985595,76.9262282 186.885595,77.0782282 187.677595,77.3822282 C188.469595,77.6862282 189.137596,78.1142282 189.681596,78.6662282 C190.225595,79.2182282 190.637596,79.8862282 190.917596,80.6702282 C191.197596,81.4542282 191.337595,82.3182282 191.337595,83.2622282 C191.337595,84.2702282 191.185596,85.1662282 190.881596,85.9502282 C190.577596,86.7342282 190.145596,87.3982282 189.585596,87.9422282 C189.025596,88.4862282 188.357596,88.8982282 187.581595,89.1782282 C186.805596,89.4582282 185.937596,89.5982282 184.977596,89.5982282 C183.969595,89.5982282 183.069595,89.4462282 182.277595,89.1422282 C181.485595,88.8382282 180.817596,88.4102282 180.273595,87.8582282 C179.729595,87.3062282 179.317596,86.6382282 179.037596,85.8542282 C178.757596,85.0702282 178.617595,84.2062282 178.617595,83.2622282 Z M181.833596,83.2622282 C181.833596,83.7902282 181.905596,84.2782282 182.049596,84.7262282 C182.193596,85.1742282 182.401596,85.5662282 182.673596,85.9022282 C182.945595,86.2382282 183.273595,86.4982282 183.657596,86.6822282 C184.041595,86.8662282 184.481595,86.9582282 184.977596,86.9582282 C185.905596,86.9582282 186.661596,86.6622282 187.245596,86.0702282 C187.829596,85.4782282 188.121596,84.5422282 188.121596,83.2622282 C188.121596,82.1582282 187.849595,81.2662282 187.305596,80.5862282 C186.761595,79.9062282 185.985595,79.5662282 184.977596,79.5662282 C184.529595,79.5662282 184.113596,79.6342282 183.729595,79.7702282 C183.345596,79.9062282 183.013596,80.1262282 182.733596,80.4302282 C182.453596,80.7342282 182.233596,81.1182282 182.073596,81.5822282 C181.913596,82.0462282 181.833596,82.6062282 181.833596,83.2622282 Z M209.361595,79.9022282 L206.985595,79.9022282 L206.985595,77.2622282 L209.361595,77.2622282 L209.361595,74.5262282 L212.481595,73.6382282 L212.481595,77.2622282 L218.769596,77.2622282 L218.769596,79.9022282 L212.481595,79.9022282 L212.481595,83.3342282 C212.481595,84.5662282 212.713595,85.4582282 213.177595,86.0102282 C213.641595,86.5622282 214.289595,86.8382282 215.121596,86.8382282 C215.553596,86.8382282 215.945595,86.7862282 216.297595,86.6822282 C216.649596,86.5782282 216.965596,86.4462282 217.245596,86.2862282 C217.525596,86.1262282 217.781596,85.9502282 218.013596,85.7582282 L218.649596,85.2302282 L220.089596,87.3902282 C219.817596,87.7102282 219.477595,88.0022282 219.069596,88.2662282 C218.661596,88.5302282 218.221596,88.7622282 217.749595,88.9622282 C217.277595,89.1622282 216.785595,89.3182282 216.273595,89.4302282 C215.761595,89.5422282 215.257596,89.5982282 214.761595,89.5982282 C212.969595,89.5982282 211.621596,89.0982282 210.717595,88.0982282 C209.813595,87.0982282 209.361595,85.5102282 209.361595,83.3342282 L209.361595,79.9022282 Z M233.793596,87.9902282 C233.585595,88.1822282 233.317596,88.3702282 232.989595,88.5542282 C232.661596,88.7382282 232.277595,88.9102282 231.837595,89.0702282 C231.397595,89.2302282 230.913596,89.3582282 230.385595,89.4542282 C229.857595,89.5502282 229.297596,89.5982282 228.705595,89.5982282 C227.681595,89.5982282 226.765595,89.4542282 225.957595,89.1662282 C225.149596,88.8782282 224.465595,88.4582282 223.905595,87.9062282 C223.345595,87.3542282 222.917595,86.6902282 222.621595,85.9142282 C222.325595,85.1382282 222.177596,84.2542282 222.177596,83.2622282 C222.177596,82.2062282 222.345595,81.2822282 222.681595,80.4902282 C223.017595,79.6982282 223.477595,79.0382282 224.061595,78.5102282 C224.645595,77.9822282 225.329596,77.5862282 226.113596,77.3222282 C226.897595,77.0582282 227.745596,76.9262282 228.657595,76.9262282 C229.265595,76.9262282 229.893595,77.0062282 230.541595,77.1662282 C231.189596,77.3262282 231.785596,77.6022282 232.329596,77.9942282 C232.873595,78.3862282 233.317596,78.9102282 233.661596,79.5662282 C234.005595,80.2222282 234.177596,81.0542282 234.177596,82.0622282 C234.177596,82.7502282 234.097595,83.4942282 233.937596,84.2942282 L225.297596,84.2942282 C225.313595,84.8062282 225.421595,85.2382282 225.621595,85.5902282 C225.821596,85.9422282 226.085595,86.2302282 226.413596,86.4542282 C226.741595,86.6782282 227.117596,86.8422282 227.541595,86.9462282 C227.965595,87.0502282 228.417595,87.1022282 228.897595,87.1022282 C229.857595,87.1022282 230.645595,86.9902282 231.261596,86.7662282 C231.877596,86.5422282 232.377596,86.2702282 232.761596,85.9502282 L233.793596,87.9902282 Z M228.609595,79.4222282 C228.193595,79.4222282 227.801595,79.4782282 227.433595,79.5902282 C227.065596,79.7022282 226.733596,79.8662282 226.437596,80.0822282 C226.141596,80.2982282 225.897595,80.5662282 225.705595,80.8862282 C225.513595,81.2062282 225.401596,81.5662282 225.369595,81.9662282 L231.273596,81.9662282 C231.273596,81.1822282 231.053596,80.5622282 230.613596,80.1062282 C230.173596,79.6502282 229.505595,79.4222282 228.609595,79.4222282 Z M241.161596,89.2622282 L241.161596,81.9182282 C241.161596,81.4382282 241.129596,81.0502282 241.065596,80.7542282 C241.001595,80.4582282 240.917595,80.2262282 240.813595,80.0582282 C240.709596,79.8902282 240.581596,79.7782282 240.429595,79.7222282 C240.277595,79.6662282 240.121595,79.6382282 239.961596,79.6382282 C239.689596,79.6382282 239.437596,79.7262282 239.205595,79.9022282 C238.973596,80.0782282 238.817596,80.3022282 238.737596,80.5742282 L238.737596,89.2622282 L235.857595,89.2622282 L235.857595,77.2622282 L238.137596,77.2622282 L238.473596,78.5822282 L238.545596,78.5822282 C238.785596,78.1182282 239.137596,77.7382282 239.601596,77.4422282 C240.065596,77.1462282 240.609595,76.9982282 241.233596,76.9982282 C241.761596,76.9982282 242.265595,77.1262282 242.745596,77.3822282 C243.225596,77.6382282 243.553596,78.0862282 243.729595,78.7262282 C243.969595,78.1662282 244.337595,77.7382282 244.833595,77.4422282 C245.329596,77.1462282 245.865596,76.9982282 246.441595,76.9982282 C246.873595,76.9982282 247.261596,77.0582282 247.605596,77.1782282 C247.949596,77.2982282 248.249596,77.5102282 248.505595,77.8142282 C248.761596,78.1182282 248.957595,78.5302282 249.093596,79.0502282 C249.229595,79.5702282 249.297596,80.2382282 249.297596,81.0542282 L249.297596,89.2622282 L246.417595,89.2622282 L246.417595,81.5822282 C246.417595,80.8622282 246.301595,80.3582282 246.069596,80.0702282 C245.837595,79.7822282 245.553596,79.6382282 245.217595,79.6382282 C244.929595,79.6382282 244.681595,79.7062282 244.473596,79.8422282 C244.265595,79.9782282 244.121595,80.1982282 244.041595,80.5022282 L244.041595,89.2622282 L241.161596,89.2622282 Z M249.777595,77.2622282 L253.857595,77.2622282 L254.217595,78.7022282 L254.313595,78.7022282 C255.145595,77.5182282 256.489595,76.9262282 258.345595,76.9262282 C259.081596,76.9262282 259.757595,77.0422282 260.373595,77.2742282 C260.989595,77.5062282 261.517595,77.8702282 261.957596,78.3662282 C262.397595,78.8622282 262.737595,79.4862282 262.977596,80.2382282 C263.217596,80.9902282 263.337596,81.8942282 263.337596,82.9502282 C263.337596,83.9742282 263.201596,84.8982282 262.929596,85.7222282 C262.657595,86.5462282 262.265596,87.2462282 261.753595,87.8222282 C261.241596,88.3982282 260.617595,88.8382282 259.881596,89.1422282 C259.145596,89.4462282 258.305595,89.5982282 257.361596,89.5982282 C256.865596,89.5982282 256.377595,89.5622282 255.897595,89.4902282 C255.417595,89.4182282 255.017595,89.3022282 254.697595,89.1422282 L254.697595,94.0622282 L251.577595,94.0622282 L251.577595,79.9022282 L249.777595,79.9022282 L249.777595,77.2622282 Z M257.409596,79.5662282 C256.801595,79.5662282 256.245596,79.7182282 255.741596,80.0222282 C255.237596,80.3262282 254.889596,80.7822282 254.697596,81.3902282 L254.697596,86.3822282 C254.921596,86.5582282 255.245596,86.6982282 255.669596,86.8022282 C256.093595,86.9062282 256.521596,86.9582282 256.953596,86.9582282 C257.401595,86.9582282 257.817596,86.8822282 258.201596,86.7302282 C258.585595,86.5782282 258.921595,86.3342282 259.209595,85.9982282 C259.497595,85.6622282 259.721596,85.2382282 259.881596,84.7262282 C260.041595,84.2142282 260.121596,83.5982282 260.121596,82.8782282 C260.121596,81.8222282 259.865596,81.0062282 259.353595,80.4302282 C258.841596,79.8542282 258.193596,79.5662282 257.409596,79.5662282 Z M266.265596,72.4622282 L271.377595,72.4622282 L271.377595,83.5502282 C271.377595,84.7822282 271.529596,85.6382282 271.833596,86.1182282 C272.137595,86.5982282 272.625596,86.8382282 273.297596,86.8382282 C273.793596,86.8382282 274.201596,86.7862282 274.521595,86.6822282 C274.841596,86.5782282 275.161595,86.4302282 275.481596,86.2382282 L276.657595,88.3982282 C276.385596,88.5742282 276.113595,88.7382282 275.841596,88.8902282 C275.569595,89.0422282 275.281595,89.1702282 274.977596,89.2742282 C274.673596,89.3782282 274.341596,89.4582282 273.981596,89.5142282 C273.621596,89.5702282 273.217596,89.5982282 272.769596,89.5982282 C271.265596,89.5982282 270.137595,89.2142282 269.385596,88.4462282 C268.633595,87.6782282 268.257595,86.5902282 268.257595,85.1822282 L268.257595,75.1022282 L266.265596,75.1022282 L266.265596,72.4622282 Z M280.737595,78.0782282 C281.377595,77.7902282 282.117595,77.5422282 282.957596,77.3342282 C283.797596,77.1262282 284.793596,77.0222282 285.945595,77.0222282 C286.777595,77.0222282 287.485596,77.1222282 288.069595,77.3222282 C288.653596,77.5222282 289.125596,77.8062282 289.485596,78.1742282 C289.845595,78.5422282 290.105596,78.9822282 290.265596,79.4942282 C290.425595,80.0062282 290.505596,80.5822282 290.505596,81.2222282 C290.505596,81.9216572 290.485025,82.5329222 290.443881,83.0560242 L290.421595,83.3102282 C290.365596,83.8862282 290.337596,84.3982282 290.337596,84.8462282 C290.337596,85.1822282 290.353595,85.5582282 290.385596,85.9742282 C290.417595,86.1982282 290.441595,86.4142282 290.457596,86.6222282 L292.017595,86.6222282 L292.017595,89.2622282 L288.033596,89.2622282 L287.721596,87.6302282 L287.601596,87.6302282 C287.281595,88.1262282 286.825595,88.5542282 286.233595,88.9142282 C285.641595,89.2742282 284.841596,89.4542282 283.833596,89.4542282 C282.633595,89.4542282 281.681595,89.1342282 280.977596,88.4942282 C280.273596,87.8542282 279.921595,87.0062282 279.921595,85.9502282 C279.921595,85.2782282 280.045595,84.6982282 280.293596,84.2102282 C280.541595,83.7222282 280.901595,83.3222282 281.373595,83.0102282 C281.845595,82.6982282 282.413596,82.4662282 283.077596,82.3142282 C283.741596,82.1622282 284.481596,82.0862282 285.297596,82.0862282 C285.489595,82.0862282 285.688706,82.0933392 285.894928,82.1075612 L286.863356,82.1918282 L287.385596,82.2302282 C287.417595,82.0702282 287.433596,81.9102282 287.433596,81.7502282 L287.433596,81.2942282 C287.433596,80.6862282 287.257595,80.2502282 286.905596,79.9862282 C286.553596,79.7222282 286.033596,79.5902282 285.345595,79.5902282 C284.529596,79.5902282 283.793596,79.6942282 283.137595,79.9022282 C282.481596,80.1102282 281.929596,80.3182282 281.481596,80.5262282 L280.737595,78.0782282 Z M284.841596,86.8862282 C285.609595,86.8862282 286.185595,86.7462282 286.569595,86.4662282 C286.953596,86.1862282 287.233595,85.8862282 287.409596,85.5662282 L287.409596,84.1262282 L287.179195,84.0859082 L286.783196,84.0301082 L286.783196,84.0301082 L286.689595,84.0182282 C286.369595,83.9782282 286.025596,83.9582282 285.657595,83.9582282 C285.353595,83.9582282 285.049596,83.9862282 284.745596,84.0422282 C284.441595,84.0982282 284.169596,84.1862282 283.929596,84.3062282 C283.689595,84.4262282 283.497595,84.5822282 283.353595,84.7742282 C283.209595,84.9662282 283.137595,85.1982282 283.137595,85.4702282 C283.137595,85.9182282 283.269596,86.2662282 283.533596,86.5142282 C283.797596,86.7622282 284.233595,86.8862282 284.841596,86.8862282 Z M295.761595,79.9022282 L293.385596,79.9022282 L293.385596,77.2622282 L295.761595,77.2622282 L295.761595,74.5262282 L298.881596,73.6382282 L298.881596,77.2622282 L305.169596,77.2622282 L305.169596,79.9022282 L298.881596,79.9022282 L298.881596,83.3342282 C298.881596,84.5662282 299.113595,85.4582282 299.577596,86.0102282 C300.041595,86.5622282 300.689595,86.8382282 301.521595,86.8382282 C301.953596,86.8382282 302.345595,86.7862282 302.697596,86.6822282 C303.049596,86.5782282 303.365596,86.4462282 303.645596,86.2862282 C303.925595,86.1262282 304.181595,85.9502282 304.413596,85.7582282 L305.049596,85.2302282 L306.489595,87.3902282 C306.217596,87.7102282 305.877595,88.0022282 305.469595,88.2662282 C305.061595,88.5302282 304.621596,88.7622282 304.149596,88.9622282 C303.677596,89.1622282 303.185595,89.3182282 302.673596,89.4302282 C302.161595,89.5422282 301.657595,89.5982282 301.161595,89.5982282 C299.369595,89.5982282 298.021595,89.0982282 297.117595,88.0982282 C296.213595,87.0982282 295.761595,85.5102282 295.761595,83.3342282 L295.761595,79.9022282 Z M308.793596,86.6222282 L313.017595,86.6222282 L313.017595,79.9022282 L308.793596,79.9022282 L308.793596,77.2622282 L316.137595,77.2622282 L316.137595,86.6222282 L320.577596,86.6222282 L320.577596,89.2622282 L308.793596,89.2622282 L308.793596,86.6222282 Z M312.441595,73.9982282 C312.441595,73.5022282 312.625596,73.0782282 312.993595,72.7262282 C313.361596,72.3742282 313.873595,72.1982282 314.529596,72.1982282 C315.201596,72.1982282 315.737595,72.3742282 316.137595,72.7262282 C316.537595,73.0782282 316.737595,73.5022282 316.737595,73.9982282 C316.737595,74.5102282 316.537595,74.9302282 316.137595,75.2582282 C315.737595,75.5862282 315.201596,75.7502282 314.529596,75.7502282 C313.873595,75.7502282 313.361596,75.5862282 312.993595,75.2582282 C312.625596,74.9302282 312.441595,74.5102282 312.441595,73.9982282 Z M322.065595,77.2622282 L326.265596,77.2622282 L326.625596,78.8462282 L326.721596,78.8462282 C327.089595,78.3342282 327.617595,77.8862282 328.305595,77.5022282 C328.993595,77.1182282 329.817596,76.9262282 330.777595,76.9262282 C331.369595,76.9262282 331.925595,77.0062282 332.445595,77.1662282 C332.965595,77.3262282 333.409596,77.5902282 333.777595,77.9582282 C334.145596,78.3262282 334.437596,78.8262282 334.653596,79.4582282 C334.869595,80.0902282 334.977596,80.8702282 334.977596,81.7982282 L334.977596,89.2622282 L331.857596,89.2622282 L331.857596,82.4462282 C331.857596,81.4702282 331.637595,80.7662282 331.197596,80.3342282 C330.757595,79.9022282 330.201596,79.6862282 329.529596,79.6862282 C328.937596,79.6862282 328.397595,79.8582282 327.909596,80.2022282 C327.421595,80.5462282 327.089595,80.9742282 326.913596,81.4862282 L326.913596,89.2622282 L323.793596,89.2622282 L323.793596,79.9022282 L322.065595,79.9022282 L322.065595,77.2622282 Z M348.897595,89.2622282 C348.897595,90.1262282 348.749596,90.8782282 348.453596,91.5182282 C348.157595,92.1582282 347.749596,92.6902282 347.229595,93.1142282 C346.709595,93.5382282 346.093595,93.8502282 345.381596,94.0502282 C344.669596,94.2502282 343.889596,94.3502282 343.041595,94.3502282 C342.465595,94.3502282 341.925595,94.3062282 341.421595,94.2182282 C340.917595,94.1302282 340.453596,94.0142282 340.029596,93.8702282 C339.605596,93.7262282 339.233595,93.5702282 338.913596,93.4022282 C338.593595,93.2342282 338.337596,93.0702282 338.145596,92.9102282 L339.345595,90.7022282 C339.729595,90.9582282 340.189595,91.2022282 340.725596,91.4342282 C341.261595,91.6662282 341.937596,91.7822282 342.753595,91.7822282 C343.761595,91.7822282 344.529596,91.5502282 345.057596,91.0862282 C345.585595,90.6222282 345.849595,89.9582282 345.849595,89.0942282 L345.849595,88.3262282 L345.753595,88.3262282 C345.465595,88.7102282 345.041595,88.9942282 344.481596,89.1782282 C343.921595,89.3622282 343.273596,89.4542282 342.537595,89.4542282 C341.769596,89.4542282 341.061595,89.3342282 340.413596,89.0942282 C339.765596,88.8542282 339.201596,88.4902282 338.721596,88.0022282 C338.241596,87.5142282 337.869595,86.8942282 337.605596,86.1422282 C337.341596,85.3902282 337.209595,84.5102282 337.209595,83.5022282 C337.209595,82.4462282 337.365596,81.5102282 337.677596,80.6942282 C337.989595,79.8782282 338.429596,79.1942282 338.997595,78.6422282 C339.565595,78.0902282 340.245596,77.6742282 341.037595,77.3942282 C341.829595,77.1142282 342.713595,76.9742282 343.689595,76.9742282 C344.201596,76.9742282 344.713595,76.9942282 345.225596,77.0342282 C345.737595,77.0742282 346.221596,77.1262282 346.677596,77.1902282 C347.133595,77.2542282 347.553596,77.3302282 347.937596,77.4182282 C348.321596,77.5062282 348.641595,77.5982282 348.897595,77.6942282 L348.897595,89.2622282 Z M343.137595,86.9582282 C343.745596,86.9582282 344.293596,86.8222282 344.781595,86.5502282 C345.269596,86.2782282 345.601596,85.8702282 345.777595,85.3262282 L345.777595,79.9262282 C345.553596,79.8302282 345.237595,79.7542282 344.829595,79.6982282 C344.421595,79.6422282 344.033596,79.6142282 343.665595,79.6142282 C343.217596,79.6142282 342.797596,79.6862282 342.405596,79.8302282 C342.013595,79.9742282 341.669596,80.2022282 341.373595,80.5142282 C341.077596,80.8262282 340.845595,81.2182282 340.677596,81.6902282 C340.509596,82.1622282 340.425595,82.7262282 340.425595,83.3822282 C340.425595,83.9582282 340.497595,84.4702282 340.641595,84.9182282 C340.785595,85.3662282 340.985596,85.7422282 341.241596,86.0462282 C341.497595,86.3502282 341.785595,86.5782282 342.105596,86.7302282 C342.425595,86.8822282 342.769596,86.9582282 343.137595,86.9582282 Z" id="Shape"></path>
        </g>
    </g>
</svg>