<svg xmlns="http://www.w3.org/2000/svg" xmlns:xlink="http://www.w3.org/1999/xlink" width="1450" height="407.36"><rect width="1450" height="407.36" rx="5" ry="5" class="a"/><svg y="0%" x="0%"><circle cx="20" cy="20" r="6" fill="#ff5f58"/><circle cx="40" cy="20" r="6" fill="#ffbd2e"/><circle cx="60" cy="20" r="6" fill="#18c132"/></svg><svg height="347.36" viewBox="0 0 141 34.736" width="1410" x="15" xmlns="http://www.w3.org/2000/svg" xmlns:xlink="http://www.w3.org/1999/xlink" y="50"><style>@keyframes x{0%{transform:translateX(0)}1.7%{transform:translateX(-282px)}20.9%{transform:translateX(-423px)}21.7%{transform:translateX(-564px)}23.1%{transform:translateX(-705px)}24.3%{transform:translateX(-846px)}24.8%{transform:translateX(-987px)}31.3%{transform:translateX(-1269px)}33.7%{transform:translateX(-1833px)}34%{transform:translateX(-1974px)}34.5%{transform:translateX(-2115px)}35.2%{transform:translateX(-2256px)}35.9%{transform:translateX(-2397px)}36.6%{transform:translateX(-2538px)}37.3%{transform:translateX(-2679px)}38%{transform:translateX(-2820px)}38.7%{transform:translateX(-2961px)}39.4%{transform:translateX(-3102px)}40%{transform:translateX(-3243px)}40.7%{transform:translateX(-3384px)}41.4%{transform:translateX(-3525px)}42.1%{transform:translateX(-3666px)}46.3%{transform:translateX(-3807px)}46.9%{transform:translateX(-3948px)}47.2%{transform:translateX(-4089px)}47.4%{transform:translateX(-4230px)}47.6%{transform:translateX(-4371px)}47.9%{transform:translateX(-4512px)}48.2%{transform:translateX(-4653px)}48.3%{transform:translateX(-4794px)}49%{transform:translateX(-4935px)}49.4%{transform:translateX(-5076px)}49.6%{transform:translateX(-5358px)}49.9%{transform:translateX(-5499px)}50.1%{transform:translateX(-5640px)}50.3%{transform:translateX(-5781px)}51%{transform:translateX(-5922px)}51.2%{transform:translateX(-6063px)}51.7%{transform:translateX(-6204px)}52.4%{transform:translateX(-6345px)}52.8%{transform:translateX(-6486px)}53%{transform:translateX(-6627px)}53.1%{transform:translateX(-6768px)}53.6%{transform:translateX(-6909px)}53.8%{transform:translateX(-7050px)}54.7%{transform:translateX(-7191px)}55.4%{transform:translateX(-7332px)}55.5%{transform:translateX(-7473px)}55.7%{transform:translateX(-7614px)}56.8%{transform:translateX(-7755px)}57.1%{transform:translateX(-7896px)}57.4%{transform:translateX(-8037px)}57.9%{transform:translateX(-8178px)}58.6%{transform:translateX(-8319px)}59.1%{transform:translateX(-8460px)}59.3%{transform:translateX(-8601px)}59.9%{transform:translateX(-8742px)}60.6%{transform:translateX(-8883px)}61.2%{transform:translateX(-9024px)}61.9%{transform:translateX(-9165px)}62.6%{transform:translateX(-9306px)}63.3%{transform:translateX(-9447px)}64%{transform:translateX(-9588px)}64.7%{transform:translateX(-9729px)}64.9%{transform:translateX(-9870px)}65.4%{transform:translateX(-10011px)}66%{transform:translateX(-10152px)}66.7%{transform:translateX(-10293px)}67.4%{transform:translateX(-10434px)}69.7%{transform:translateX(-10575px)}69.9%{transform:translateX(-10716px)}70.5%{transform:translateX(-10857px)}71.2%{transform:translateX(-10998px)}71.9%{transform:translateX(-11139px)}72.6%{transform:translateX(-11280px)}73.3%{transform:translateX(-11421px)}73.9%{transform:translateX(-11562px)}74.6%{transform:translateX(-11703px)}75.3%{transform:translateX(-11844px)}76%{transform:translateX(-11985px)}76.7%{transform:translateX(-12126px)}77.4%{transform:translateX(-12267px)}78.1%{transform:translateX(-12408px)}82.2%{transform:translateX(-12549px)}82.9%{transform:translateX(-12690px)}83.5%{transform:translateX(-12831px)}83.8%{transform:translateX(-12972px)}84%{transform:translateX(-13395px)}84.1%{transform:translateX(-13677px)}to{transform:translateX(-13818px)}}.a{fill:#282d35}.f,.g{fill:#b9c0cb;white-space:pre}.g{fill:#0aa1dd}.h{fill:#9772fb}.i{fill:#282d35;white-space:pre}.j,.k,.l,.m,.n,.o{fill:#22577e;white-space:pre}.k,.l,.m,.n,.o{fill:#0992c9}.l,.m,.n,.o{fill:#0884b5}.m,.n,.o{fill:#0775a1}.n,.o{fill:#06668d}.o{fill:#055879}.p{fill:#054964}.p,.q{white-space:pre}.q,.r{fill:#f1ddbf}.s{fill:#9772fb}.s,.t,.u{white-space:pre}.t{fill:#f1ddbf;font-weight:700}.u{fill:#97dbae}</style><g font-family="Monaco,Consolas,Menlo,'Bitstream Vera Sans Mono','Powerline Symbols',monospace" font-size="1.67"><defs><symbol id="1"><text y="1.67" class="f">&gt;</text></symbol><symbol id="2"><text y="1.67" class="f">&gt;</text><text x="2.004" y="1.67" class="f">tmplr</text></symbol><symbol id="3"><text y="1.67" class="g">⠋</text><text x="2.004" y="1.67" class="f">Initializing</text><text x="15.03" y="1.67" class="f">...</text></symbol><symbol id="4"><text y="1.67" class="g">⠋</text><text x="2.004" y="1.67" class="f">Working</text><text x="10.02" y="1.67" class="f">...</text></symbol><symbol id="5"><text y="1.67" class="g">▶</text><text x="2.004" y="1.67" class="f">What</text><text x="7.014" y="1.67" class="f">is</text><text x="10.02" y="1.67" class="f">the</text><text x="14.028" y="1.67" class="f">name</text><text x="19.038" y="1.67" class="f">of</text><text x="22.044" y="1.67" class="f">the</text><text x="26.052" y="1.67" class="f">package?</text></symbol><symbol id="6"><path class="h" d="M0 0h1v2.171H0z"/><text y="1.67" class="i"></text></symbol><symbol id="7"><text y="1.67" class="j">Press</text><text x="6.012" y="1.67" class="j">&lt;Enter&gt;</text><text x="14.028" y="1.67" class="j">to</text><text x="17.034" y="1.67" class="j">continue</text></symbol><symbol id="8"><text y="1.67" class="k">▶</text><text x="2.004" y="1.67" class="f">What</text><text x="7.014" y="1.67" class="f">is</text><text x="10.02" y="1.67" class="f">the</text><text x="14.028" y="1.67" class="f">name</text><text x="19.038" y="1.67" class="f">of</text><text x="22.044" y="1.67" class="f">the</text><text x="26.052" y="1.67" class="f">package?</text></symbol><symbol id="9"><text y="1.67" class="l">▶</text><text x="2.004" y="1.67" class="f">What</text><text x="7.014" y="1.67" class="f">is</text><text x="10.02" y="1.67" class="f">the</text><text x="14.028" y="1.67" class="f">name</text><text x="19.038" y="1.67" class="f">of</text><text x="22.044" y="1.67" class="f">the</text><text x="26.052" y="1.67" class="f">package?</text></symbol><symbol id="10"><text y="1.67" class="m">▶</text><text x="2.004" y="1.67" class="f">What</text><text x="7.014" y="1.67" class="f">is</text><text x="10.02" y="1.67" class="f">the</text><text x="14.028" y="1.67" class="f">name</text><text x="19.038" y="1.67" class="f">of</text><text x="22.044" y="1.67" class="f">the</text><text x="26.052" y="1.67" class="f">package?</text></symbol><symbol id="11"><text y="1.67" class="n">▶</text><text x="2.004" y="1.67" class="f">What</text><text x="7.014" y="1.67" class="f">is</text><text x="10.02" y="1.67" class="f">the</text><text x="14.028" y="1.67" class="f">name</text><text x="19.038" y="1.67" class="f">of</text><text x="22.044" y="1.67" class="f">the</text><text x="26.052" y="1.67" class="f">package?</text></symbol><symbol id="12"><text y="1.67" class="o">▶</text><text x="2.004" y="1.67" class="f">What</text><text x="7.014" y="1.67" class="f">is</text><text x="10.02" y="1.67" class="f">the</text><text x="14.028" y="1.67" class="f">name</text><text x="19.038" y="1.67" class="f">of</text><text x="22.044" y="1.67" class="f">the</text><text x="26.052" y="1.67" class="f">package?</text></symbol><symbol id="13"><text y="1.67" class="p">▶</text><text x="2.004" y="1.67" class="f">What</text><text x="7.014" y="1.67" class="f">is</text><text x="10.02" y="1.67" class="f">the</text><text x="14.028" y="1.67" class="f">name</text><text x="19.038" y="1.67" class="f">of</text><text x="22.044" y="1.67" class="f">the</text><text x="26.052" y="1.67" class="f">package?</text></symbol><symbol id="14"><text y="1.67" class="q">m</text><path class="r" d="M1.002 0h1v2.171h-1z"/><text x="1.002" y="1.67" class="i"></text></symbol><symbol id="15"><text y="1.67" class="q">my</text><path class="r" d="M2.004 0h1v2.171h-1z"/><text x="2.004" y="1.67" class="i"></text></symbol><symbol id="16"><text y="1.67" class="q">my-</text><path class="r" d="M3.006 0h1v2.171h-1z"/><text x="3.006" y="1.67" class="i"></text></symbol><symbol id="17"><text y="1.67" class="q">my-n</text><path class="r" d="M4.008 0h1v2.171h-1z"/><text x="4.008" y="1.67" class="i"></text></symbol><symbol id="18"><text y="1.67" class="q">my-new</text><path class="r" d="M6.012 0h1v2.171h-1z"/><text x="6.012" y="1.67" class="i"></text></symbol><symbol id="19"><text y="1.67" class="q">my-new-</text><path class="r" d="M7.014 0h1v2.171h-1z"/><text x="7.014" y="1.67" class="i"></text></symbol><symbol id="20"><text y="1.67" class="q">my-new-p</text><path class="r" d="M8.016 0h1v2.171h-1z"/><text x="8.016" y="1.67" class="i"></text></symbol><symbol id="21"><text y="1.67" class="q">my-new-package</text><path class="r" d="M14.028 0h1v2.171h-1z"/><text x="14.028" y="1.67" class="i"></text></symbol><symbol id="22"><text y="1.67" class="g">▶</text><text x="2.004" y="1.67" class="f">Which</text><text x="8.016" y="1.67" class="f">template</text><text x="17.034" y="1.67" class="f">you</text><text x="21.042" y="1.67" class="f">want</text><text x="26.052" y="1.67" class="f">to</text><text x="29.058" y="1.67" class="f">use?</text></symbol><symbol id="23"><text x="1.002" y="1.67" class="s">⦿</text><text x="3.006" y="1.67" class="t">first</text></symbol><symbol id="24"><text x="1.002" y="1.67" class="j">○</text><text x="3.006" y="1.67" class="f">second</text></symbol><symbol id="25"><text y="1.67" class="j">Use</text><text x="4.008" y="1.67" class="j">&lt;Up&gt;</text><text x="9.018" y="1.67" class="j">and</text><text x="13.026" y="1.67" class="j">&lt;Down&gt;</text><text x="20.04" y="1.67" class="j">keys</text><text x="25.05" y="1.67" class="j">to</text><text x="28.056" y="1.67" class="j">navigate,</text><text x="38.076" y="1.67" class="j">&lt;Enter&gt;</text><text x="46.092" y="1.67" class="j">to</text><text x="49.098" y="1.67" class="j">select.</text></symbol><symbol id="26"><text y="1.67" class="k">▶</text><text x="2.004" y="1.67" class="f">Which</text><text x="8.016" y="1.67" class="f">template</text><text x="17.034" y="1.67" class="f">you</text><text x="21.042" y="1.67" class="f">want</text><text x="26.052" y="1.67" class="f">to</text><text x="29.058" y="1.67" class="f">use?</text></symbol><symbol id="27"><text y="1.67" class="l">▶</text><text x="2.004" y="1.67" class="f">Which</text><text x="8.016" y="1.67" class="f">template</text><text x="17.034" y="1.67" class="f">you</text><text x="21.042" y="1.67" class="f">want</text><text x="26.052" y="1.67" class="f">to</text><text x="29.058" y="1.67" class="f">use?</text></symbol><symbol id="28"><text y="1.67" class="m">▶</text><text x="2.004" y="1.67" class="f">Which</text><text x="8.016" y="1.67" class="f">template</text><text x="17.034" y="1.67" class="f">you</text><text x="21.042" y="1.67" class="f">want</text><text x="26.052" y="1.67" class="f">to</text><text x="29.058" y="1.67" class="f">use?</text></symbol><symbol id="29"><text y="1.67" class="n">▶</text><text x="2.004" y="1.67" class="f">Which</text><text x="8.016" y="1.67" class="f">template</text><text x="17.034" y="1.67" class="f">you</text><text x="21.042" y="1.67" class="f">want</text><text x="26.052" y="1.67" class="f">to</text><text x="29.058" y="1.67" class="f">use?</text></symbol><symbol id="30"><text y="1.67" class="o">▶</text><text x="2.004" y="1.67" class="f">Which</text><text x="8.016" y="1.67" class="f">template</text><text x="17.034" y="1.67" class="f">you</text><text x="21.042" y="1.67" class="f">want</text><text x="26.052" y="1.67" class="f">to</text><text x="29.058" y="1.67" class="f">use?</text></symbol><symbol id="31"><text x="1.002" y="1.67" class="j">○</text><text x="3.006" y="1.67" class="f">first</text></symbol><symbol id="32"><text x="1.002" y="1.67" class="s">⦿</text><text x="3.006" y="1.67" class="t">second</text></symbol><symbol id="33"><text y="1.67" class="g">▶</text><text x="2.004" y="1.67" class="f">What</text><text x="7.014" y="1.67" class="f">is</text><text x="10.02" y="1.67" class="f">the</text><text x="14.028" y="1.67" class="f">name</text><text x="19.038" y="1.67" class="f">of</text><text x="22.044" y="1.67" class="f">the</text><text x="26.052" y="1.67" class="f">startup</text><text x="34.068" y="1.67" class="f">script?</text></symbol><symbol id="34"><path class="h" d="M0 0h1v2.171H0z"/><text y="1.67" class="i">i</text><text x="1.002" y="1.67" class="s">ndex.mjs</text></symbol><symbol id="35"><text y="1.67" class="k">▶</text><text x="2.004" y="1.67" class="f">What</text><text x="7.014" y="1.67" class="f">is</text><text x="10.02" y="1.67" class="f">the</text><text x="14.028" y="1.67" class="f">name</text><text x="19.038" y="1.67" class="f">of</text><text x="22.044" y="1.67" class="f">the</text><text x="26.052" y="1.67" class="f">startup</text><text x="34.068" y="1.67" class="f">script?</text></symbol><symbol id="36"><text y="1.67" class="l">▶</text><text x="2.004" y="1.67" class="f">What</text><text x="7.014" y="1.67" class="f">is</text><text x="10.02" y="1.67" class="f">the</text><text x="14.028" y="1.67" class="f">name</text><text x="19.038" y="1.67" class="f">of</text><text x="22.044" y="1.67" class="f">the</text><text x="26.052" y="1.67" class="f">startup</text><text x="34.068" y="1.67" class="f">script?</text></symbol><symbol id="37"><text y="1.67" class="m">▶</text><text x="2.004" y="1.67" class="f">What</text><text x="7.014" y="1.67" class="f">is</text><text x="10.02" y="1.67" class="f">the</text><text x="14.028" y="1.67" class="f">name</text><text x="19.038" y="1.67" class="f">of</text><text x="22.044" y="1.67" class="f">the</text><text x="26.052" y="1.67" class="f">startup</text><text x="34.068" y="1.67" class="f">script?</text></symbol><symbol id="38"><text y="1.67" class="n">▶</text><text x="2.004" y="1.67" class="f">What</text><text x="7.014" y="1.67" class="f">is</text><text x="10.02" y="1.67" class="f">the</text><text x="14.028" y="1.67" class="f">name</text><text x="19.038" y="1.67" class="f">of</text><text x="22.044" y="1.67" class="f">the</text><text x="26.052" y="1.67" class="f">startup</text><text x="34.068" y="1.67" class="f">script?</text></symbol><symbol id="39"><text y="1.67" class="o">▶</text><text x="2.004" y="1.67" class="f">What</text><text x="7.014" y="1.67" class="f">is</text><text x="10.02" y="1.67" class="f">the</text><text x="14.028" y="1.67" class="f">name</text><text x="19.038" y="1.67" class="f">of</text><text x="22.044" y="1.67" class="f">the</text><text x="26.052" y="1.67" class="f">startup</text><text x="34.068" y="1.67" class="f">script?</text></symbol><symbol id="40"><text y="1.67" class="u">✔</text><text x="2.004" y="1.67" class="f">Copied:</text><text x="10.02" y="1.67" class="t">.templates/second-template/README.md</text><text x="47.094" y="1.67" class="s">-&gt;</text><text x="50.1" y="1.67" class="t">packages/my-new-package/README.md</text></symbol><symbol id="41"><text y="1.67" class="u">✔</text><text x="2.004" y="1.67" class="f">Copied:</text><text x="10.02" y="1.67" class="t">.templates/second-template/startup.mjs</text><text x="49.098" y="1.67" class="s">-&gt;</text><text x="52.104" y="1.67" class="t">packages/my-new-package/index.mjs</text></symbol><symbol id="a"><path fill="transparent" d="M0 0h141v17H0z"/></symbol><symbol id="b"><path fill="#6f7683" d="M0 0h1.102v2.171H0z"/></symbol></defs><path class="a" d="M0 0h141v34.736H0z"/><g style="animation-duration:14.720034s;animation-iteration-count:infinite;animation-name:x;animation-timing-function:steps(1,end)"><svg width="13959"><svg><use xlink:href="#a"/><use xlink:href="#b" x="-.004"/></svg><svg x="141"><use xlink:href="#a"/><use xlink:href="#b" x="-.004"/></svg><svg x="282"><use xlink:href="#a"/><use xlink:href="#b" x="1.996"/><use xlink:href="#1"/></svg><svg x="423"><use xlink:href="#a"/><use xlink:href="#b" x="2.996"/><text y="1.67" class="f">&gt;</text><text x="2.004" y="1.67" class="f">t</text></svg><svg x="564"><use xlink:href="#a"/><use xlink:href="#b" x="3.996"/><text y="1.67" class="f">&gt;</text><text x="2.004" y="1.67" class="f">tm</text></svg><svg x="705"><use xlink:href="#a"/><use xlink:href="#b" x="4.996"/><text y="1.67" class="f">&gt;</text><text x="2.004" y="1.67" class="f">tmp</text></svg><svg x="846"><use xlink:href="#a"/><use xlink:href="#b" x="5.996"/><text y="1.67" class="f">&gt;</text><text x="2.004" y="1.67" class="f">tmpl</text></svg><svg x="987"><use xlink:href="#a"/><use xlink:href="#b" x="6.996"/><use xlink:href="#2"/></svg><svg x="1128"><use xlink:href="#a"/><use xlink:href="#b" x="6.996"/><use xlink:href="#2"/></svg><svg x="1269"><use xlink:href="#a"/><use xlink:href="#b" x="-.004" y="2.146"/><use xlink:href="#2"/></svg><svg x="1410"><use xlink:href="#a"/><use xlink:href="#2"/></svg><svg x="1551"><use xlink:href="#a"/><use xlink:href="#2"/><use xlink:href="#3" y="2.171"/></svg><svg x="1692"><use xlink:href="#a"/><use xlink:href="#2"/><use xlink:href="#3" y="2.171"/></svg><svg x="1833"><use xlink:href="#a"/><use xlink:href="#2"/><use xlink:href="#4" y="2.171"/></svg><svg x="1974"><use xlink:href="#a"/><use xlink:href="#2"/><use xlink:href="#5" y="2.171"/><use xlink:href="#6" y="4.342"/><use xlink:href="#7" y="10.855"/></svg><svg x="2115"><use xlink:href="#a"/><use xlink:href="#2"/><use xlink:href="#8" y="2.171"/><use xlink:href="#6" y="4.342"/><use xlink:href="#7" y="10.855"/></svg><svg x="2256"><use xlink:href="#a"/><use xlink:href="#2"/><use xlink:href="#9" y="2.171"/><use xlink:href="#6" y="4.342"/><use xlink:href="#7" y="10.855"/></svg><svg x="2397"><use xlink:href="#a"/><use xlink:href="#2"/><use xlink:href="#10" y="2.171"/><use xlink:href="#6" y="4.342"/><use xlink:href="#7" y="10.855"/></svg><svg x="2538"><use xlink:href="#a"/><use xlink:href="#2"/><use xlink:href="#11" y="2.171"/><use xlink:href="#6" y="4.342"/><use xlink:href="#7" y="10.855"/></svg><svg x="2679"><use xlink:href="#a"/><use xlink:href="#2"/><use xlink:href="#12" y="2.171"/><use xlink:href="#6" y="4.342"/><use xlink:href="#7" y="10.855"/></svg><svg x="2820"><use xlink:href="#a"/><use xlink:href="#2"/><use xlink:href="#13" y="2.171"/><use xlink:href="#6" y="4.342"/><use xlink:href="#7" y="10.855"/></svg><svg x="2961"><use xlink:href="#a"/><use xlink:href="#2"/><use xlink:href="#12" y="2.171"/><use xlink:href="#6" y="4.342"/><use xlink:href="#7" y="10.855"/></svg><svg x="3102"><use xlink:href="#a"/><use xlink:href="#2"/><use xlink:href="#11" y="2.171"/><use xlink:href="#6" y="4.342"/><use xlink:href="#7" y="10.855"/></svg><svg x="3243"><use xlink:href="#a"/><use xlink:href="#2"/><use xlink:href="#10" y="2.171"/><use xlink:href="#6" y="4.342"/><use xlink:href="#7" y="10.855"/></svg><svg x="3384"><use xlink:href="#a"/><use xlink:href="#2"/><use xlink:href="#9" y="2.171"/><use xlink:href="#6" y="4.342"/><use xlink:href="#7" y="10.855"/></svg><svg x="3525"><use xlink:href="#a"/><use xlink:href="#2"/><use xlink:href="#8" y="2.171"/><use xlink:href="#6" y="4.342"/><use xlink:href="#7" y="10.855"/></svg><svg x="3666"><use xlink:href="#a"/><use xlink:href="#2"/><use xlink:href="#5" y="2.171"/><use xlink:href="#6" y="4.342"/><use xlink:href="#7" y="10.855"/></svg><svg x="3807"><use xlink:href="#a"/><use xlink:href="#2"/><use xlink:href="#8" y="2.171"/><use xlink:href="#14" y="4.342"/><use xlink:href="#7" y="10.855"/></svg><svg x="3948"><use xlink:href="#a"/><use xlink:href="#2"/><use xlink:href="#9" y="2.171"/><use xlink:href="#14" y="4.342"/><use xlink:href="#7" y="10.855"/></svg><svg x="4089"><use xlink:href="#a"/><use xlink:href="#2"/><use xlink:href="#9" y="2.171"/><text y="6.012" class="q">m</text><use xlink:href="#7" y="10.855"/></svg><svg x="4230"><use xlink:href="#a"/><use xlink:href="#2"/><use xlink:href="#9" y="2.171"/><use xlink:href="#15" y="4.342"/><use xlink:href="#7" y="10.855"/></svg><svg x="4371"><use xlink:href="#a"/><use xlink:href="#2"/><use xlink:href="#10" y="2.171"/><use xlink:href="#15" y="4.342"/><use xlink:href="#7" y="10.855"/></svg><svg x="4512"><use xlink:href="#a"/><use xlink:href="#2"/><use xlink:href="#10" y="2.171"/><text y="6.012" class="q">my</text><use xlink:href="#7" y="10.855"/></svg><svg x="4653"><use xlink:href="#a"/><use xlink:href="#2"/><use xlink:href="#10" y="2.171"/><use xlink:href="#16" y="4.342"/><use xlink:href="#7" y="10.855"/></svg><svg x="4794"><use xlink:href="#a"/><use xlink:href="#2"/><use xlink:href="#11" y="2.171"/><use xlink:href="#16" y="4.342"/><use xlink:href="#7" y="10.855"/></svg><svg x="4935"><use xlink:href="#a"/><use xlink:href="#2"/><use xlink:href="#12" y="2.171"/><use xlink:href="#16" y="4.342"/><use xlink:href="#7" y="10.855"/></svg><svg x="5076"><use xlink:href="#a"/><use xlink:href="#2"/><use xlink:href="#12" y="2.171"/><text y="6.012" class="q">my-</text><use xlink:href="#7" y="10.855"/></svg><svg x="5217"><use xlink:href="#a"/><use xlink:href="#2"/><use xlink:href="#12" y="2.171"/><use xlink:href="#17" y="4.342"/><use xlink:href="#7" y="10.855"/></svg><svg x="5358"><use xlink:href="#a"/><use xlink:href="#2"/><use xlink:href="#13" y="2.171"/><use xlink:href="#17" y="4.342"/><use xlink:href="#7" y="10.855"/></svg><svg x="5499"><use xlink:href="#a"/><use xlink:href="#2"/><use xlink:href="#13" y="2.171"/><text y="6.012" class="q">my-ne</text><path class="r" d="M5.01 4.342h1v2.171h-1z"/><text x="5.01" y="6.012" class="i"></text><use xlink:href="#7" y="10.855"/></svg><svg x="5640"><use xlink:href="#a"/><use xlink:href="#2"/><use xlink:href="#13" y="2.171"/><text y="6.012" class="q">my-ne</text><use xlink:href="#7" y="10.855"/></svg><svg x="5781"><use xlink:href="#a"/><use xlink:href="#2"/><use xlink:href="#12" y="2.171"/><use xlink:href="#18" y="4.342"/><use xlink:href="#7" y="10.855"/></svg><svg x="5922"><use xlink:href="#a"/><use xlink:href="#2"/><use xlink:href="#11" y="2.171"/><use xlink:href="#18" y="4.342"/><use xlink:href="#7" y="10.855"/></svg><svg x="6063"><use xlink:href="#a"/><use xlink:href="#2"/><use xlink:href="#11" y="2.171"/><use xlink:href="#19" y="4.342"/><use xlink:href="#7" y="10.855"/></svg><svg x="6204"><use xlink:href="#a"/><use xlink:href="#2"/><use xlink:href="#10" y="2.171"/><use xlink:href="#19" y="4.342"/><use xlink:href="#7" y="10.855"/></svg><svg x="6345"><use xlink:href="#a"/><use xlink:href="#2"/><use xlink:href="#9" y="2.171"/><use xlink:href="#19" y="4.342"/><use xlink:href="#7" y="10.855"/></svg><svg x="6486"><use xlink:href="#a"/><use xlink:href="#2"/><use xlink:href="#9" y="2.171"/><text y="6.012" class="q">my-new-</text><use xlink:href="#7" y="10.855"/></svg><svg x="6627"><use xlink:href="#a"/><use xlink:href="#2"/><use xlink:href="#9" y="2.171"/><use xlink:href="#20" y="4.342"/><use xlink:href="#7" y="10.855"/></svg><svg x="6768"><use xlink:href="#a"/><use xlink:href="#2"/><use xlink:href="#8" y="2.171"/><use xlink:href="#20" y="4.342"/><use xlink:href="#7" y="10.855"/></svg><svg x="6909"><use xlink:href="#a"/><use xlink:href="#2"/><use xlink:href="#8" y="2.171"/><text y="6.012" class="q">my-new-p</text><use xlink:href="#7" y="10.855"/></svg><svg x="7050"><use xlink:href="#a"/><use xlink:href="#2"/><use xlink:href="#5" y="2.171"/><text y="6.012" class="q">my-new-pa</text><path class="r" d="M9.018 4.342h1v2.171h-1z"/><text x="9.018" y="6.012" class="i"></text><use xlink:href="#7" y="10.855"/></svg><svg x="7191"><use xlink:href="#a"/><use xlink:href="#2"/><use xlink:href="#5" y="2.171"/><text y="6.012" class="q">my-new-pac</text><path class="r" d="M10.02 4.342h1v2.171h-1z"/><text x="10.02" y="6.012" class="i"></text><use xlink:href="#7" y="10.855"/></svg><svg x="7332"><use xlink:href="#a"/><use xlink:href="#2"/><use xlink:href="#5" y="2.171"/><text y="6.012" class="q">my-new-pack</text><path class="r" d="M11.022 4.342h1v2.171h-1z"/><text x="11.022" y="6.012" class="i"></text><use xlink:href="#7" y="10.855"/></svg><svg x="7473"><use xlink:href="#a"/><use xlink:href="#2"/><use xlink:href="#5" y="2.171"/><text y="6.012" class="q">my-new-pack</text><use xlink:href="#7" y="10.855"/></svg><svg x="7614"><use xlink:href="#a"/><use xlink:href="#2"/><use xlink:href="#5" y="2.171"/><text y="6.012" class="q">my-new-packa</text><path class="r" d="M12.024 4.342h1v2.171h-1z"/><text x="12.024" y="6.012" class="i"></text><use xlink:href="#7" y="10.855"/></svg><svg x="7755"><use xlink:href="#a"/><use xlink:href="#2"/><use xlink:href="#5" y="2.171"/><text y="6.012" class="q">my-new-packa</text><use xlink:href="#7" y="10.855"/></svg><svg x="7896"><use xlink:href="#a"/><use xlink:href="#2"/><use xlink:href="#5" y="2.171"/><text y="6.012" class="q">my-new-packag</text><path class="r" d="M13.026 4.342h1v2.171h-1z"/><text x="13.026" y="6.012" class="i"></text><use xlink:href="#7" y="10.855"/></svg><svg x="8037"><use xlink:href="#a"/><use xlink:href="#2"/><use xlink:href="#5" y="2.171"/><use xlink:href="#21" y="4.342"/><use xlink:href="#7" y="10.855"/></svg><svg x="8178"><use xlink:href="#a"/><use xlink:href="#2"/><use xlink:href="#8" y="2.171"/><use xlink:href="#21" y="4.342"/><use xlink:href="#7" y="10.855"/></svg><svg x="8319"><use xlink:href="#a"/><use xlink:href="#2"/><use xlink:href="#9" y="2.171"/><use xlink:href="#21" y="4.342"/><use xlink:href="#7" y="10.855"/></svg><svg x="8460"><use xlink:href="#a"/><use xlink:href="#2"/><use xlink:href="#4" y="2.171"/></svg><svg x="8601"><use xlink:href="#a"/><use xlink:href="#2"/><use xlink:href="#22" y="2.171"/><use xlink:href="#23" y="4.342"/><use xlink:href="#24" y="6.513"/><use xlink:href="#25" y="13.026"/></svg><svg x="8742"><use xlink:href="#a"/><use xlink:href="#2"/><use xlink:href="#26" y="2.171"/><use xlink:href="#23" y="4.342"/><use xlink:href="#24" y="6.513"/><use xlink:href="#25" y="13.026"/></svg><svg x="8883"><use xlink:href="#a"/><use xlink:href="#2"/><use xlink:href="#27" y="2.171"/><use xlink:href="#23" y="4.342"/><use xlink:href="#24" y="6.513"/><use xlink:href="#25" y="13.026"/></svg><svg x="9024"><use xlink:href="#a"/><use xlink:href="#2"/><use xlink:href="#28" y="2.171"/><use xlink:href="#23" y="4.342"/><use xlink:href="#24" y="6.513"/><use xlink:href="#25" y="13.026"/></svg><svg x="9165"><use xlink:href="#a"/><use xlink:href="#2"/><use xlink:href="#29" y="2.171"/><use xlink:href="#23" y="4.342"/><use xlink:href="#24" y="6.513"/><use xlink:href="#25" y="13.026"/></svg><svg x="9306"><use xlink:href="#a"/><use xlink:href="#2"/><use xlink:href="#30" y="2.171"/><use xlink:href="#23" y="4.342"/><use xlink:href="#24" y="6.513"/><use xlink:href="#25" y="13.026"/></svg><svg x="9447"><use xlink:href="#a"/><use xlink:href="#2"/><text y="3.841" class="p">▶</text><text x="2.004" y="3.841" class="f">Which</text><text x="8.016" y="3.841" class="f">template</text><text x="17.034" y="3.841" class="f">you</text><text x="21.042" y="3.841" class="f">want</text><text x="26.052" y="3.841" class="f">to</text><text x="29.058" y="3.841" class="f">use?</text><use xlink:href="#23" y="4.342"/><use xlink:href="#24" y="6.513"/><use xlink:href="#25" y="13.026"/></svg><svg x="9588"><use xlink:href="#a"/><use xlink:href="#2"/><use xlink:href="#30" y="2.171"/><use xlink:href="#23" y="4.342"/><use xlink:href="#24" y="6.513"/><use xlink:href="#25" y="13.026"/></svg><svg x="9729"><use xlink:href="#a"/><use xlink:href="#2"/><use xlink:href="#29" y="2.171"/><use xlink:href="#23" y="4.342"/><use xlink:href="#24" y="6.513"/><use xlink:href="#25" y="13.026"/></svg><svg x="9870"><use xlink:href="#a"/><use xlink:href="#2"/><use xlink:href="#29" y="2.171"/><use xlink:href="#31" y="4.342"/><use xlink:href="#32" y="6.513"/><use xlink:href="#25" y="13.026"/></svg><svg x="10011"><use xlink:href="#a"/><use xlink:href="#2"/><use xlink:href="#28" y="2.171"/><use xlink:href="#31" y="4.342"/><use xlink:href="#32" y="6.513"/><use xlink:href="#25" y="13.026"/></svg><svg x="10152"><use xlink:href="#a"/><use xlink:href="#2"/><use xlink:href="#27" y="2.171"/><use xlink:href="#31" y="4.342"/><use xlink:href="#32" y="6.513"/><use xlink:href="#25" y="13.026"/></svg><svg x="10293"><use xlink:href="#a"/><use xlink:href="#2"/><use xlink:href="#26" y="2.171"/><use xlink:href="#31" y="4.342"/><use xlink:href="#32" y="6.513"/><use xlink:href="#25" y="13.026"/></svg><svg x="10434"><use xlink:href="#a"/><use xlink:href="#2"/><use xlink:href="#22" y="2.171"/><use xlink:href="#31" y="4.342"/><use xlink:href="#32" y="6.513"/><use xlink:href="#25" y="13.026"/></svg><svg x="10575"><use xlink:href="#a"/><use xlink:href="#2"/><use xlink:href="#4" y="2.171"/></svg><svg x="10716"><use xlink:href="#a"/><use xlink:href="#2"/><use xlink:href="#33" y="2.171"/><use xlink:href="#34" y="4.342"/><use xlink:href="#7" y="10.855"/></svg><svg x="10857"><use xlink:href="#a"/><use xlink:href="#2"/><use xlink:href="#35" y="2.171"/><use xlink:href="#34" y="4.342"/><use xlink:href="#7" y="10.855"/></svg><svg x="10998"><use xlink:href="#a"/><use xlink:href="#2"/><use xlink:href="#36" y="2.171"/><use xlink:href="#34" y="4.342"/><use xlink:href="#7" y="10.855"/></svg><svg x="11139"><use xlink:href="#a"/><use xlink:href="#2"/><use xlink:href="#37" y="2.171"/><use xlink:href="#34" y="4.342"/><use xlink:href="#7" y="10.855"/></svg><svg x="11280"><use xlink:href="#a"/><use xlink:href="#2"/><use xlink:href="#38" y="2.171"/><use xlink:href="#34" y="4.342"/><use xlink:href="#7" y="10.855"/></svg><svg x="11421"><use xlink:href="#a"/><use xlink:href="#2"/><use xlink:href="#39" y="2.171"/><use xlink:href="#34" y="4.342"/><use xlink:href="#7" y="10.855"/></svg><svg x="11562"><use xlink:href="#a"/><use xlink:href="#2"/><text y="3.841" class="p">▶</text><text x="2.004" y="3.841" class="f">What</text><text x="7.014" y="3.841" class="f">is</text><text x="10.02" y="3.841" class="f">the</text><text x="14.028" y="3.841" class="f">name</text><text x="19.038" y="3.841" class="f">of</text><text x="22.044" y="3.841" class="f">the</text><text x="26.052" y="3.841" class="f">startup</text><text x="34.068" y="3.841" class="f">script?</text><use xlink:href="#34" y="4.342"/><use xlink:href="#7" y="10.855"/></svg><svg x="11703"><use xlink:href="#a"/><use xlink:href="#2"/><use xlink:href="#39" y="2.171"/><use xlink:href="#34" y="4.342"/><use xlink:href="#7" y="10.855"/></svg><svg x="11844"><use xlink:href="#a"/><use xlink:href="#2"/><use xlink:href="#38" y="2.171"/><use xlink:href="#34" y="4.342"/><use xlink:href="#7" y="10.855"/></svg><svg x="11985"><use xlink:href="#a"/><use xlink:href="#2"/><use xlink:href="#37" y="2.171"/><use xlink:href="#34" y="4.342"/><use xlink:href="#7" y="10.855"/></svg><svg x="12126"><use xlink:href="#a"/><use xlink:href="#2"/><use xlink:href="#36" y="2.171"/><use xlink:href="#34" y="4.342"/><use xlink:href="#7" y="10.855"/></svg><svg x="12267"><use xlink:href="#a"/><use xlink:href="#2"/><use xlink:href="#35" y="2.171"/><use xlink:href="#34" y="4.342"/><use xlink:href="#7" y="10.855"/></svg><svg x="12408"><use xlink:href="#a"/><use xlink:href="#2"/><use xlink:href="#33" y="2.171"/><use xlink:href="#34" y="4.342"/><use xlink:href="#7" y="10.855"/></svg><svg x="12549"><use xlink:href="#a"/><use xlink:href="#2"/><use xlink:href="#35" y="2.171"/><use xlink:href="#34" y="4.342"/><use xlink:href="#7" y="10.855"/></svg><svg x="12690"><use xlink:href="#a"/><use xlink:href="#2"/><use xlink:href="#36" y="2.171"/><use xlink:href="#34" y="4.342"/><use xlink:href="#7" y="10.855"/></svg><svg x="12831"><use xlink:href="#a"/><use xlink:href="#2"/><use xlink:href="#37" y="2.171"/><use xlink:href="#34" y="4.342"/><use xlink:href="#7" y="10.855"/></svg><svg x="12972"><use xlink:href="#a"/><use xlink:href="#2"/><use xlink:href="#37" y="2.171"/><path class="r" d="M0 4.342h1v2.171H0z"/><text y="6.012" class="i">i</text><text x="1.002" y="6.012" class="q">ndex.mjs</text><use xlink:href="#7" y="10.855"/></svg><svg x="13113"><use xlink:href="#a"/><use xlink:href="#2"/><use xlink:href="#40" y="2.171"/><use xlink:href="#41" y="4.342"/></svg><svg x="13254"><use xlink:href="#a"/><use xlink:href="#b" x="-.004" y="8.659"/><use xlink:href="#2"/><use xlink:href="#40" y="2.171"/><use xlink:href="#41" y="4.342"/></svg><svg x="13395"><use xlink:href="#a"/><use xlink:href="#b" x="-.004" y="8.659"/><use xlink:href="#2"/><use xlink:href="#40" y="2.171"/><use xlink:href="#41" y="4.342"/></svg><svg x="13536"><use xlink:href="#a"/><use xlink:href="#b" x="-.004" y="8.659"/><use xlink:href="#2"/><use xlink:href="#40" y="2.171"/><use xlink:href="#41" y="4.342"/></svg><svg x="13677"><use xlink:href="#a"/><use xlink:href="#b" x="1.996" y="8.659"/><use xlink:href="#2"/><use xlink:href="#40" y="2.171"/><use xlink:href="#41" y="4.342"/><use xlink:href="#1" y="8.684"/></svg><svg x="13818"><use xlink:href="#a"/><use xlink:href="#b" x="-.004" y="10.83"/><use xlink:href="#2"/><use xlink:href="#40" y="2.171"/><use xlink:href="#41" y="4.342"/><use xlink:href="#1" y="8.684"/></svg></svg></g></g></svg></svg>